<?xml version="1.0" standalone="no"?>
<!DOCTYPE svg PUBLIC "-//W3C//DTD SVG 1.1//EN" "http://www.w3.org/Graphics/SVG/1.1/DTD/svg11.dtd">
<svg width="603mm" height="552mm" viewBox="-1 -551 603 552" xmlns="http://www.w3.org/2000/svg" version="1.1">
<title>OpenSCAD Model</title>
<path d="
M 165.474,-403.06 L 171.489,-403.06 L 171.489,-400.16 L 178.103,-400.16 L 178.103,-403.06 L 184.117,-403.06
 L 184.117,-400.16 L 190.731,-400.16 L 190.731,-403.06 L 196.746,-403.06 L 196.746,-400.16 L 203.36,-400.16
 L 203.36,-403.06 L 209.374,-403.06 L 209.374,-400.16 L 215.989,-400.16 L 215.989,-403.06 L 222.003,-403.06
 L 222.003,-400.16 L 228.617,-400.16 L 228.617,-403.06 L 234.631,-403.06 L 234.631,-400.16 L 241.246,-400.16
 L 241.246,-403.06 L 247.26,-403.06 L 247.26,-400.16 L 253.874,-400.16 L 253.874,-403.06 L 259.889,-403.06
 L 259.889,-400.16 L 266.503,-400.16 L 266.503,-403.06 L 272.517,-403.06 L 272.517,-400.16 L 279.131,-400.16
 L 279.131,-403.06 L 285.146,-403.06 L 285.146,-400.16 L 291.76,-400.16 L 291.76,-403.06 L 297.56,-403.06
 L 297.56,-411.76 L 300.46,-411.76 L 300.46,-418.098 L 297.56,-418.098 L 297.56,-423.836 L 300.46,-423.836
 L 300.46,-430.174 L 297.56,-430.174 L 297.56,-435.912 L 300.46,-435.912 L 300.46,-442.25 L 297.56,-442.25
 L 297.56,-447.989 L 300.46,-447.989 L 300.46,-454.327 L 297.56,-454.327 L 297.56,-460.065 L 300.46,-460.065
 L 300.46,-466.403 L 297.56,-466.403 L 297.56,-472.141 L 300.46,-472.141 L 300.46,-478.479 L 297.56,-478.479
 L 297.56,-484.217 L 300.46,-484.217 L 300.46,-490.555 L 297.56,-490.555 L 297.56,-496.293 L 300.46,-496.293
 L 300.46,-502.631 L 297.56,-502.631 L 297.56,-508.37 L 300.46,-508.37 L 300.46,-514.708 L 297.56,-514.708
 L 297.56,-520.446 L 300.46,-520.446 L 300.46,-526.784 L 297.56,-526.784 L 297.56,-532.522 L 300.46,-532.522
 L 300.46,-538.86 L 297.56,-538.86 L 297.56,-547.56 L 291.76,-547.56 L 291.76,-550.46 L 285.146,-550.46
 L 285.146,-547.56 L 279.131,-547.56 L 279.131,-550.46 L 272.517,-550.46 L 272.517,-547.56 L 266.503,-547.56
 L 266.503,-550.46 L 259.889,-550.46 L 259.889,-547.56 L 253.874,-547.56 L 253.874,-550.46 L 247.26,-550.46
 L 247.26,-547.56 L 241.246,-547.56 L 241.246,-550.46 L 234.631,-550.46 L 234.631,-547.56 L 228.617,-547.56
 L 228.617,-550.46 L 222.003,-550.46 L 222.003,-547.56 L 215.989,-547.56 L 215.989,-550.46 L 209.374,-550.46
 L 209.374,-547.56 L 203.36,-547.56 L 203.36,-550.46 L 196.746,-550.46 L 196.746,-547.56 L 190.731,-547.56
 L 190.731,-550.46 L 184.117,-550.46 L 184.117,-547.56 L 178.103,-547.56 L 178.103,-550.46 L 171.489,-550.46
 L 171.489,-547.56 L 165.474,-547.56 L 165.474,-550.46 L 158.86,-550.46 L 158.86,-547.56 L 153.06,-547.56
 L 153.06,-538.86 L 150.16,-538.86 L 150.16,-532.522 L 153.06,-532.522 L 153.06,-526.784 L 150.16,-526.784
 L 150.16,-520.446 L 153.06,-520.446 L 153.06,-514.708 L 150.16,-514.708 L 150.16,-508.37 L 153.06,-508.37
 L 153.06,-502.631 L 150.16,-502.631 L 150.16,-496.293 L 153.06,-496.293 L 153.06,-490.555 L 150.16,-490.555
 L 150.16,-484.217 L 153.06,-484.217 L 153.06,-478.479 L 150.16,-478.479 L 150.16,-472.141 L 153.06,-472.141
 L 153.06,-466.403 L 150.16,-466.403 L 150.16,-460.065 L 153.06,-460.065 L 153.06,-454.327 L 150.16,-454.327
 L 150.16,-447.989 L 153.06,-447.989 L 153.06,-442.25 L 150.16,-442.25 L 150.16,-435.912 L 153.06,-435.912
 L 153.06,-430.174 L 150.16,-430.174 L 150.16,-423.836 L 153.06,-423.836 L 153.06,-418.098 L 150.16,-418.098
 L 150.16,-411.76 L 153.06,-411.76 L 153.06,-403.06 L 158.86,-403.06 L 158.86,-400.16 L 165.474,-400.16
 z
M 15.1643,-403.06 L 21.1786,-403.06 L 21.1786,-400.16 L 27.7928,-400.16 L 27.7928,-403.06 L 33.8071,-403.06
 L 33.8071,-400.16 L 40.4214,-400.16 L 40.4214,-403.06 L 46.4357,-403.06 L 46.4357,-400.16 L 53.05,-400.16
 L 53.05,-403.06 L 59.0643,-403.06 L 59.0643,-400.16 L 65.6786,-400.16 L 65.6786,-403.06 L 71.6929,-403.06
 L 71.6929,-400.16 L 78.3071,-400.16 L 78.3071,-403.06 L 84.3214,-403.06 L 84.3214,-400.16 L 90.9357,-400.16
 L 90.9357,-403.06 L 96.95,-403.06 L 96.95,-400.16 L 103.564,-400.16 L 103.564,-403.06 L 109.579,-403.06
 L 109.579,-400.16 L 116.193,-400.16 L 116.193,-403.06 L 122.207,-403.06 L 122.207,-400.16 L 128.821,-400.16
 L 128.821,-403.06 L 134.836,-403.06 L 134.836,-400.16 L 141.45,-400.16 L 141.45,-403.06 L 147.25,-403.06
 L 147.25,-411.76 L 150.15,-411.76 L 150.15,-418.098 L 147.25,-418.098 L 147.25,-423.836 L 150.15,-423.836
 L 150.15,-430.174 L 147.25,-430.174 L 147.25,-435.912 L 150.15,-435.912 L 150.15,-442.25 L 147.25,-442.25
 L 147.25,-447.989 L 150.15,-447.989 L 150.15,-454.327 L 147.25,-454.327 L 147.25,-460.065 L 150.15,-460.065
 L 150.15,-466.403 L 147.25,-466.403 L 147.25,-472.141 L 150.15,-472.141 L 150.15,-478.479 L 147.25,-478.479
 L 147.25,-484.217 L 150.15,-484.217 L 150.15,-490.555 L 147.25,-490.555 L 147.25,-496.293 L 150.15,-496.293
 L 150.15,-502.631 L 147.25,-502.631 L 147.25,-508.37 L 150.15,-508.37 L 150.15,-514.708 L 147.25,-514.708
 L 147.25,-520.446 L 150.15,-520.446 L 150.15,-526.784 L 147.25,-526.784 L 147.25,-532.522 L 150.15,-532.522
 L 150.15,-538.86 L 147.25,-538.86 L 147.25,-547.56 L 141.45,-547.56 L 141.45,-550.46 L 134.836,-550.46
 L 134.836,-547.56 L 128.821,-547.56 L 128.821,-550.46 L 122.207,-550.46 L 122.207,-547.56 L 116.193,-547.56
 L 116.193,-550.46 L 109.579,-550.46 L 109.579,-547.56 L 103.564,-547.56 L 103.564,-550.46 L 96.95,-550.46
 L 96.95,-547.56 L 90.9357,-547.56 L 90.9357,-550.46 L 84.3214,-550.46 L 84.3214,-547.56 L 78.3071,-547.56
 L 78.3071,-550.46 L 71.6929,-550.46 L 71.6929,-547.56 L 65.6786,-547.56 L 65.6786,-550.46 L 59.0643,-550.46
 L 59.0643,-547.56 L 53.05,-547.56 L 53.05,-550.46 L 46.4357,-550.46 L 46.4357,-547.56 L 40.4214,-547.56
 L 40.4214,-550.46 L 33.8072,-550.46 L 33.8072,-547.56 L 27.7929,-547.56 L 27.7929,-550.46 L 21.1786,-550.46
 L 21.1786,-547.56 L 15.1643,-547.56 L 15.1643,-550.46 L 8.55002,-550.46 L 8.55002,-547.56 L 2.74998,-547.56
 L 2.74998,-538.86 L -0.149994,-538.86 L -0.149994,-532.522 L 2.74998,-532.522 L 2.74998,-526.784 L -0.149994,-526.784
 L -0.149994,-520.446 L 2.74998,-520.446 L 2.74998,-514.708 L -0.149994,-514.708 L -0.149994,-508.37 L 2.74998,-508.37
 L 2.74998,-502.631 L -0.149994,-502.631 L -0.149994,-496.293 L 2.74998,-496.293 L 2.74998,-490.555 L -0.149994,-490.555
 L -0.149994,-484.217 L 2.74998,-484.217 L 2.75,-478.479 L -0.149994,-478.479 L -0.149994,-472.141 L 2.75,-472.141
 L 2.75,-466.403 L -0.149994,-466.403 L -0.149994,-460.065 L 2.75,-460.065 L 2.75,-454.327 L -0.149994,-454.327
 L -0.149994,-447.989 L 2.75,-447.989 L 2.75,-442.25 L -0.149994,-442.25 L -0.149994,-435.912 L 2.75,-435.912
 L 2.75,-430.174 L -0.149994,-430.174 L -0.149994,-423.836 L 2.75,-423.836 L 2.75,-418.098 L -0.149994,-418.098
 L -0.149994,-411.76 L 2.75,-411.76 L 2.75,-403.06 L 8.55,-403.06 L 8.55,-400.16 L 15.1643,-400.16
 z
M 159.16,-2.75 L 165.174,-2.75 L 165.174,0.149994 L 171.789,0.149994 L 171.789,-2.75 L 177.803,-2.75
 L 177.803,0.149994 L 184.417,0.149994 L 184.417,-2.75 L 190.431,-2.75 L 190.431,0.149994 L 197.046,0.149994
 L 197.046,-2.75 L 203.06,-2.75 L 203.06,0.149994 L 209.674,0.149994 L 209.674,-2.75 L 215.689,-2.75
 L 215.689,0.149994 L 222.303,0.149994 L 222.303,-2.75 L 228.317,-2.75 L 228.317,0.149994 L 234.931,0.149994
 L 234.931,-2.75 L 240.946,-2.75 L 240.946,0.149994 L 247.56,0.149994 L 247.56,-2.75 L 253.574,-2.75
 L 253.574,0.149994 L 260.189,0.149994 L 260.189,-2.75 L 266.203,-2.75 L 266.203,0.149994 L 272.817,0.149994
 L 272.817,-2.75 L 278.831,-2.75 L 278.831,0.149994 L 285.446,0.149994 L 285.446,-2.75 L 291.46,-2.75
 L 291.46,0.149994 L 300.46,0.149994 L 300.46,-8.84999 L 297.56,-8.84999 L 297.56,-14.4362 L 300.46,-14.4362
 L 300.46,-20.6223 L 297.56,-20.6223 L 297.56,-26.2085 L 300.46,-26.2085 L 300.46,-32.3946 L 297.56,-32.3946
 L 297.56,-37.9808 L 300.46,-37.9808 L 300.46,-44.1669 L 297.56,-44.1669 L 297.56,-49.7531 L 300.46,-49.7531
 L 300.46,-55.9392 L 297.56,-55.9392 L 297.56,-61.5254 L 300.46,-61.5254 L 300.46,-67.7115 L 297.56,-67.7115
 L 297.56,-73.2977 L 300.46,-73.2977 L 300.46,-79.4838 L 297.56,-79.4838 L 297.56,-85.07 L 300.46,-85.07
 L 300.46,-91.2561 L 297.56,-91.2561 L 297.56,-96.8423 L 300.46,-96.8423 L 300.46,-103.028 L 297.56,-103.028
 L 297.56,-108.615 L 300.46,-108.615 L 300.46,-114.801 L 297.56,-114.801 L 297.56,-120.387 L 300.46,-120.387
 L 300.46,-126.573 L 297.56,-126.573 L 297.56,-132.159 L 300.46,-132.159 L 300.46,-138.345 L 297.56,-138.345
 L 297.56,-143.932 L 300.46,-143.932 L 300.46,-150.118 L 297.56,-150.118 L 297.56,-155.704 L 300.46,-155.704
 L 300.46,-161.89 L 297.56,-161.89 L 297.56,-167.476 L 300.46,-167.476 L 300.46,-173.662 L 297.56,-173.662
 L 297.56,-179.248 L 300.46,-179.248 L 300.46,-185.435 L 297.56,-185.435 L 297.56,-191.021 L 300.46,-191.021
 L 300.46,-197.207 L 297.56,-197.207 L 297.56,-202.793 L 300.46,-202.793 L 300.46,-208.979 L 297.56,-208.979
 L 297.56,-214.565 L 300.46,-214.565 L 300.46,-220.752 L 297.56,-220.752 L 297.56,-226.338 L 300.46,-226.338
 L 300.46,-232.524 L 297.56,-232.524 L 297.56,-238.11 L 300.46,-238.11 L 300.46,-244.296 L 297.56,-244.296
 L 297.56,-249.882 L 300.46,-249.882 L 300.46,-256.068 L 297.56,-256.068 L 297.56,-261.655 L 300.46,-261.655
 L 300.46,-267.841 L 297.56,-267.841 L 297.56,-273.427 L 300.46,-273.427 L 300.46,-279.613 L 297.56,-279.613
 L 297.56,-285.199 L 300.46,-285.199 L 300.46,-291.385 L 297.56,-291.385 L 297.56,-296.972 L 300.46,-296.972
 L 300.46,-303.158 L 297.56,-303.158 L 297.56,-308.744 L 300.46,-308.744 L 300.46,-314.93 L 297.56,-314.93
 L 297.56,-320.516 L 300.46,-320.516 L 300.46,-326.702 L 297.56,-326.702 L 297.56,-332.288 L 300.46,-332.288
 L 300.46,-338.475 L 297.56,-338.475 L 297.56,-344.061 L 300.46,-344.061 L 300.46,-350.247 L 297.56,-350.247
 L 297.56,-355.833 L 300.46,-355.833 L 300.46,-362.019 L 297.56,-362.019 L 297.56,-367.605 L 300.46,-367.605
 L 300.46,-373.792 L 297.56,-373.792 L 297.56,-379.378 L 300.46,-379.378 L 300.46,-385.564 L 297.56,-385.564
 L 297.56,-391.15 L 300.46,-391.15 L 300.46,-400.15 L 291.46,-400.15 L 291.46,-397.25 L 285.446,-397.25
 L 285.446,-400.15 L 278.831,-400.15 L 278.831,-397.25 L 272.817,-397.25 L 272.817,-400.15 L 266.203,-400.15
 L 266.203,-397.25 L 260.189,-397.25 L 260.189,-400.15 L 253.574,-400.15 L 253.574,-397.25 L 247.56,-397.25
 L 247.56,-400.15 L 240.946,-400.15 L 240.946,-397.25 L 234.931,-397.25 L 234.931,-400.15 L 228.317,-400.15
 L 228.317,-397.25 L 222.303,-397.25 L 222.303,-400.15 L 215.689,-400.15 L 215.689,-397.25 L 209.674,-397.25
 L 209.674,-400.15 L 203.06,-400.15 L 203.06,-397.25 L 197.046,-397.25 L 197.046,-400.15 L 190.431,-400.15
 L 190.431,-397.25 L 184.417,-397.25 L 184.417,-400.15 L 177.803,-400.15 L 177.803,-397.25 L 171.789,-397.25
 L 171.789,-400.15 L 165.174,-400.15 L 165.174,-397.25 L 159.16,-397.25 L 159.16,-400.15 L 150.16,-400.15
 L 150.16,-391.15 L 153.06,-391.15 L 153.06,-385.564 L 150.16,-385.564 L 150.16,-379.378 L 153.06,-379.378
 L 153.06,-373.792 L 150.16,-373.792 L 150.16,-367.605 L 153.06,-367.605 L 153.06,-362.019 L 150.16,-362.019
 L 150.16,-355.833 L 153.06,-355.833 L 153.06,-350.247 L 150.16,-350.247 L 150.16,-344.061 L 153.06,-344.061
 L 153.06,-338.475 L 150.16,-338.475 L 150.16,-332.288 L 153.06,-332.288 L 153.06,-326.702 L 150.16,-326.702
 L 150.16,-320.516 L 153.06,-320.516 L 153.06,-314.93 L 150.16,-314.93 L 150.16,-308.744 L 153.06,-308.744
 L 153.06,-303.158 L 150.16,-303.158 L 150.16,-296.972 L 153.06,-296.972 L 153.06,-291.385 L 150.16,-291.385
 L 150.16,-285.199 L 153.06,-285.199 L 153.06,-279.613 L 150.16,-279.613 L 150.16,-273.427 L 153.06,-273.427
 L 153.06,-267.841 L 150.16,-267.841 L 150.16,-261.655 L 153.06,-261.655 L 153.06,-256.068 L 150.16,-256.068
 L 150.16,-249.882 L 153.06,-249.882 L 153.06,-244.296 L 150.16,-244.296 L 150.16,-238.11 L 153.06,-238.11
 L 153.06,-232.524 L 150.16,-232.524 L 150.16,-226.338 L 153.06,-226.338 L 153.06,-220.752 L 150.16,-220.752
 L 150.16,-214.565 L 153.06,-214.565 L 153.06,-208.979 L 150.16,-208.979 L 150.16,-202.793 L 153.06,-202.793
 L 153.06,-197.207 L 150.16,-197.207 L 150.16,-191.021 L 153.06,-191.021 L 153.06,-185.435 L 150.16,-185.435
 L 150.16,-179.248 L 153.06,-179.248 L 153.06,-173.662 L 150.16,-173.662 L 150.16,-167.476 L 153.06,-167.476
 L 153.06,-161.89 L 150.16,-161.89 L 150.16,-155.704 L 153.06,-155.704 L 153.06,-150.118 L 150.16,-150.118
 L 150.16,-143.932 L 153.06,-143.932 L 153.06,-138.345 L 150.16,-138.345 L 150.16,-132.159 L 153.06,-132.159
 L 153.06,-126.573 L 150.16,-126.573 L 150.16,-120.387 L 153.06,-120.387 L 153.06,-114.801 L 150.16,-114.801
 L 150.16,-108.615 L 153.06,-108.615 L 153.06,-103.028 L 150.16,-103.028 L 150.16,-96.8423 L 153.06,-96.8423
 L 153.06,-91.2561 L 150.16,-91.2561 L 150.16,-85.07 L 153.06,-85.07 L 153.06,-79.4838 L 150.16,-79.4838
 L 150.16,-73.2977 L 153.06,-73.2977 L 153.06,-67.7115 L 150.16,-67.7115 L 150.16,-61.5254 L 153.06,-61.5254
 L 153.06,-55.9392 L 150.16,-55.9392 L 150.16,-49.7531 L 153.06,-49.7531 L 153.06,-44.1669 L 150.16,-44.1669
 L 150.16,-37.9808 L 153.06,-37.9808 L 153.06,-32.3946 L 150.16,-32.3946 L 150.16,-26.2085 L 153.06,-26.2085
 L 153.06,-20.6223 L 150.16,-20.6223 L 150.16,-14.4362 L 153.06,-14.4362 L 153.06,-8.85001 L 150.16,-8.85001
 L 150.16,0.149994 L 159.16,0.149994 z
M 8.84999,-2.75 L 14.8643,-2.75 L 14.8643,0.149994 L 21.4786,0.149994 L 21.4786,-2.75 L 27.4929,-2.75
 L 27.4929,0.149994 L 34.1071,0.149994 L 34.1071,-2.75 L 40.1214,-2.75 L 40.1214,0.149994 L 46.7357,0.149994
 L 46.7357,-2.75 L 52.75,-2.75 L 52.75,0.149994 L 59.3643,0.149994 L 59.3643,-2.75 L 65.3786,-2.75
 L 65.3786,0.149994 L 71.9928,0.149994 L 71.9928,-2.75 L 78.0071,-2.75 L 78.0071,0.149994 L 84.6214,0.149994
 L 84.6214,-2.75 L 90.6357,-2.75 L 90.6357,0.149994 L 97.25,0.149994 L 97.25,-2.75 L 103.264,-2.75
 L 103.264,0.149994 L 109.879,0.149994 L 109.879,-2.75 L 115.893,-2.75 L 115.893,0.149994 L 122.507,0.149994
 L 122.507,-2.75 L 128.521,-2.75 L 128.521,0.149994 L 135.136,0.149994 L 135.136,-2.75 L 141.15,-2.75
 L 141.15,0.149994 L 150.15,0.149994 L 150.15,-8.84999 L 147.25,-8.84999 L 147.25,-14.4362 L 150.15,-14.4362
 L 150.15,-20.6223 L 147.25,-20.6223 L 147.25,-26.2085 L 150.15,-26.2085 L 150.15,-32.3946 L 147.25,-32.3946
 L 147.25,-37.9808 L 150.15,-37.9808 L 150.15,-44.1669 L 147.25,-44.1669 L 147.25,-49.7531 L 150.15,-49.7531
 L 150.15,-55.9392 L 147.25,-55.9392 L 147.25,-61.5254 L 150.15,-61.5254 L 150.15,-67.7115 L 147.25,-67.7115
 L 147.25,-73.2977 L 150.15,-73.2977 L 150.15,-79.4838 L 147.25,-79.4838 L 147.25,-85.07 L 150.15,-85.07
 L 150.15,-91.2561 L 147.25,-91.2561 L 147.25,-96.8423 L 150.15,-96.8423 L 150.15,-103.028 L 147.25,-103.028
 L 147.25,-108.615 L 150.15,-108.615 L 150.15,-114.801 L 147.25,-114.801 L 147.25,-120.387 L 150.15,-120.387
 L 150.15,-126.573 L 147.25,-126.573 L 147.25,-132.159 L 150.15,-132.159 L 150.15,-138.345 L 147.25,-138.345
 L 147.25,-143.932 L 150.15,-143.932 L 150.15,-150.118 L 147.25,-150.118 L 147.25,-155.704 L 150.15,-155.704
 L 150.15,-161.89 L 147.25,-161.89 L 147.25,-167.476 L 150.15,-167.476 L 150.15,-173.662 L 147.25,-173.662
 L 147.25,-179.248 L 150.15,-179.248 L 150.15,-185.435 L 147.25,-185.435 L 147.25,-191.021 L 150.15,-191.021
 L 150.15,-197.207 L 147.25,-197.207 L 147.25,-202.793 L 150.15,-202.793 L 150.15,-208.979 L 147.25,-208.979
 L 147.25,-214.565 L 150.15,-214.565 L 150.15,-220.752 L 147.25,-220.752 L 147.25,-226.338 L 150.15,-226.338
 L 150.15,-232.524 L 147.25,-232.524 L 147.25,-238.11 L 150.15,-238.11 L 150.15,-244.296 L 147.25,-244.296
 L 147.25,-249.882 L 150.15,-249.882 L 150.15,-256.068 L 147.25,-256.068 L 147.25,-261.655 L 150.15,-261.655
 L 150.15,-267.841 L 147.25,-267.841 L 147.25,-273.427 L 150.15,-273.427 L 150.15,-279.613 L 147.25,-279.613
 L 147.25,-285.199 L 150.15,-285.199 L 150.15,-291.385 L 147.25,-291.385 L 147.25,-296.972 L 150.15,-296.972
 L 150.15,-303.158 L 147.25,-303.158 L 147.25,-308.744 L 150.15,-308.744 L 150.15,-314.93 L 147.25,-314.93
 L 147.25,-320.516 L 150.15,-320.516 L 150.15,-326.702 L 147.25,-326.702 L 147.25,-332.288 L 150.15,-332.288
 L 150.15,-338.475 L 147.25,-338.475 L 147.25,-344.061 L 150.15,-344.061 L 150.15,-350.247 L 147.25,-350.247
 L 147.25,-355.833 L 150.15,-355.833 L 150.15,-362.019 L 147.25,-362.019 L 147.25,-367.605 L 150.15,-367.605
 L 150.15,-373.792 L 147.25,-373.792 L 147.25,-379.378 L 150.15,-379.378 L 150.15,-385.564 L 147.25,-385.564
 L 147.25,-391.15 L 150.15,-391.15 L 150.15,-400.15 L 141.15,-400.15 L 141.15,-397.25 L 135.136,-397.25
 L 135.136,-400.15 L 128.521,-400.15 L 128.521,-397.25 L 122.507,-397.25 L 122.507,-400.15 L 115.893,-400.15
 L 115.893,-397.25 L 109.879,-397.25 L 109.879,-400.15 L 103.264,-400.15 L 103.264,-397.25 L 97.25,-397.25
 L 97.25,-400.15 L 90.6357,-400.15 L 90.6357,-397.25 L 84.6214,-397.25 L 84.6214,-400.15 L 78.0072,-400.15
 L 78.0072,-397.25 L 71.9929,-397.25 L 71.9929,-400.15 L 65.3786,-400.15 L 65.3786,-397.25 L 59.3643,-397.25
 L 59.3643,-400.15 L 52.75,-400.15 L 52.75,-397.25 L 46.7357,-397.25 L 46.7357,-400.15 L 40.1214,-400.15
 L 40.1214,-397.25 L 34.1071,-397.25 L 34.1071,-400.15 L 27.4929,-400.15 L 27.4929,-397.25 L 21.4786,-397.25
 L 21.4786,-400.15 L 14.8643,-400.15 L 14.8643,-397.25 L 8.85001,-397.25 L 8.85001,-400.15 L -0.149994,-400.15
 L -0.149994,-391.15 L 2.74998,-391.15 L 2.74998,-385.564 L -0.149994,-385.564 L -0.149994,-379.378 L 2.74998,-379.378
 L 2.74998,-373.792 L -0.149994,-373.792 L -0.149994,-367.605 L 2.74998,-367.605 L 2.74998,-362.019 L -0.149994,-362.019
 L -0.149994,-355.833 L 2.74998,-355.833 L 2.74998,-350.247 L -0.149994,-350.247 L -0.149994,-344.061 L 2.74998,-344.061
 L 2.74998,-338.475 L -0.149994,-338.475 L -0.149994,-332.288 L 2.74998,-332.288 L 2.74998,-326.702 L -0.149994,-326.702
 L -0.149994,-320.516 L 2.74998,-320.516 L 2.74998,-314.93 L -0.149994,-314.93 L -0.149994,-308.744 L 2.74998,-308.744
 L 2.74998,-303.158 L -0.149994,-303.158 L -0.149994,-296.972 L 2.74998,-296.972 L 2.74998,-291.385 L -0.149994,-291.385
 L -0.149994,-285.199 L 2.74998,-285.199 L 2.74998,-279.613 L -0.149994,-279.613 L -0.149994,-273.427 L 2.74998,-273.427
 L 2.74998,-267.841 L -0.149994,-267.841 L -0.149994,-261.655 L 2.74998,-261.655 L 2.74998,-256.068 L -0.149994,-256.068
 L -0.149994,-249.882 L 2.74998,-249.882 L 2.74998,-244.296 L -0.149994,-244.296 L -0.149994,-238.11 L 2.74998,-238.11
 L 2.74998,-232.524 L -0.149994,-232.524 L -0.149994,-226.338 L 2.74998,-226.338 L 2.74998,-220.752 L -0.149994,-220.752
 L -0.149994,-214.565 L 2.74998,-214.565 L 2.74998,-208.979 L -0.149994,-208.979 L -0.149994,-202.793 L 2.75,-202.793
 L 2.75,-197.207 L -0.149994,-197.207 L -0.149994,-191.021 L 2.75,-191.021 L 2.75,-185.435 L -0.149994,-185.435
 L -0.149994,-179.248 L 2.75,-179.248 L 2.75,-173.662 L -0.149994,-173.662 L -0.149994,-167.476 L 2.75,-167.476
 L 2.75,-161.89 L -0.149994,-161.89 L -0.149994,-155.704 L 2.75,-155.704 L 2.75,-150.118 L -0.149994,-150.118
 L -0.149994,-143.932 L 2.75,-143.932 L 2.75,-138.345 L -0.149994,-138.345 L -0.149994,-132.159 L 2.75,-132.159
 L 2.75,-126.573 L -0.149994,-126.573 L -0.149994,-120.387 L 2.75,-120.387 L 2.75,-114.801 L -0.149994,-114.801
 L -0.149994,-108.615 L 2.75,-108.615 L 2.75,-103.028 L -0.149994,-103.028 L -0.149994,-96.8423 L 2.75,-96.8423
 L 2.75,-91.2561 L -0.149994,-91.2561 L -0.149994,-85.07 L 2.75,-85.07 L 2.75,-79.4838 L -0.149994,-79.4838
 L -0.149994,-73.2977 L 2.75,-73.2977 L 2.75,-67.7115 L -0.149994,-67.7115 L -0.149994,-61.5254 L 2.75,-61.5254
 L 2.75,-55.9392 L -0.149994,-55.9392 L -0.149994,-49.7531 L 2.75,-49.7531 L 2.75,-44.1669 L -0.149994,-44.1669
 L -0.149994,-37.9808 L 2.75,-37.9808 L 2.75,-32.3946 L -0.149994,-32.3946 L -0.149994,-26.2085 L 2.75,-26.2085
 L 2.75,-20.6223 L -0.149994,-20.6223 L -0.149994,-14.4362 L 2.75,-14.4362 L 2.75,-8.85001 L -0.149994,-8.85001
 L -0.149994,0.149994 L 8.84999,0.149994 z
M 312.37,-2.75 L 318.108,-2.75 L 318.108,0.149994 L 324.446,0.149994 L 324.446,-2.75 L 330.184,-2.75
 L 330.184,0.149994 L 336.522,0.149994 L 336.522,-2.75 L 342.26,-2.75 L 342.26,0.149994 L 348.599,0.149994
 L 348.599,-2.75 L 354.337,-2.75 L 354.337,0.149994 L 360.675,0.149994 L 360.675,-2.75 L 366.413,-2.75
 L 366.413,0.149994 L 372.751,0.149994 L 372.751,-2.75 L 378.489,-2.75 L 378.489,0.149994 L 384.827,0.149994
 L 384.827,-2.75 L 390.565,-2.75 L 390.565,0.149994 L 396.903,0.149994 L 396.903,-2.75 L 402.641,-2.75
 L 402.641,0.149994 L 408.979,0.149994 L 408.979,-2.75 L 414.718,-2.75 L 414.718,0.149994 L 421.056,0.149994
 L 421.056,-2.75 L 426.794,-2.75 L 426.794,0.149994 L 433.132,0.149994 L 433.132,-2.75 L 438.87,-2.75
 L 438.87,0.149994 L 447.87,0.149994 L 447.87,-8.55 L 450.77,-8.55 L 450.77,-14.7361 L 447.87,-14.7361
 L 447.87,-20.3223 L 450.77,-20.3223 L 450.77,-26.5085 L 447.87,-26.5085 L 447.87,-32.0946 L 450.77,-32.0946
 L 450.77,-38.2808 L 447.87,-38.2808 L 447.87,-43.8669 L 450.77,-43.8669 L 450.77,-50.0531 L 447.87,-50.0531
 L 447.87,-55.6392 L 450.77,-55.6392 L 450.77,-61.8254 L 447.87,-61.8254 L 447.87,-67.4115 L 450.77,-67.4115
 L 450.77,-73.5977 L 447.87,-73.5977 L 447.87,-79.1838 L 450.77,-79.1838 L 450.77,-85.37 L 447.87,-85.37
 L 447.87,-90.9561 L 450.77,-90.9561 L 450.77,-97.1423 L 447.87,-97.1423 L 447.87,-102.728 L 450.77,-102.728
 L 450.77,-108.915 L 447.87,-108.915 L 447.87,-114.501 L 450.77,-114.501 L 450.77,-120.687 L 447.87,-120.687
 L 447.87,-126.273 L 450.77,-126.273 L 450.77,-132.459 L 447.87,-132.459 L 447.87,-138.045 L 450.77,-138.045
 L 450.77,-144.232 L 447.87,-144.232 L 447.87,-149.818 L 450.77,-149.818 L 450.77,-156.004 L 447.87,-156.004
 L 447.87,-161.59 L 450.77,-161.59 L 450.77,-167.776 L 447.87,-167.776 L 447.87,-173.362 L 450.77,-173.362
 L 450.77,-179.548 L 447.87,-179.548 L 447.87,-185.135 L 450.77,-185.135 L 450.77,-191.321 L 447.87,-191.321
 L 447.87,-196.907 L 450.77,-196.907 L 450.77,-203.093 L 447.87,-203.093 L 447.87,-208.679 L 450.77,-208.679
 L 450.77,-214.865 L 447.87,-214.865 L 447.87,-220.452 L 450.77,-220.452 L 450.77,-226.638 L 447.87,-226.638
 L 447.87,-232.224 L 450.77,-232.224 L 450.77,-238.41 L 447.87,-238.41 L 447.87,-243.996 L 450.77,-243.996
 L 450.77,-250.182 L 447.87,-250.182 L 447.87,-255.768 L 450.77,-255.768 L 450.77,-261.955 L 447.87,-261.955
 L 447.87,-267.541 L 450.77,-267.541 L 450.77,-273.727 L 447.87,-273.727 L 447.87,-279.313 L 450.77,-279.313
 L 450.77,-285.499 L 447.87,-285.499 L 447.87,-291.085 L 450.77,-291.085 L 450.77,-297.272 L 447.87,-297.272
 L 447.87,-302.858 L 450.77,-302.858 L 450.77,-309.044 L 447.87,-309.044 L 447.87,-314.63 L 450.77,-314.63
 L 450.77,-320.816 L 447.87,-320.816 L 447.87,-326.402 L 450.77,-326.402 L 450.77,-332.588 L 447.87,-332.588
 L 447.87,-338.175 L 450.77,-338.175 L 450.77,-344.361 L 447.87,-344.361 L 447.87,-349.947 L 450.77,-349.947
 L 450.77,-356.133 L 447.87,-356.133 L 447.87,-361.719 L 450.77,-361.719 L 450.77,-367.905 L 447.87,-367.905
 L 447.87,-373.492 L 450.77,-373.492 L 450.77,-379.678 L 447.87,-379.678 L 447.87,-385.264 L 450.77,-385.264
 L 450.77,-391.45 L 447.87,-391.45 L 447.87,-400.15 L 438.87,-400.15 L 438.87,-397.25 L 433.132,-397.25
 L 433.132,-400.15 L 426.794,-400.15 L 426.794,-397.25 L 421.056,-397.25 L 421.056,-400.15 L 414.718,-400.15
 L 414.718,-397.25 L 408.98,-397.25 L 408.98,-400.15 L 402.641,-400.15 L 402.641,-397.25 L 396.903,-397.25
 L 396.903,-400.15 L 390.565,-400.15 L 390.565,-397.25 L 384.827,-397.25 L 384.827,-400.15 L 378.489,-400.15
 L 378.489,-397.25 L 372.751,-397.25 L 372.751,-400.15 L 366.413,-400.15 L 366.413,-397.25 L 360.675,-397.25
 L 360.675,-400.15 L 354.337,-400.15 L 354.337,-397.25 L 348.599,-397.25 L 348.599,-400.15 L 342.26,-400.15
 L 342.26,-397.25 L 336.522,-397.25 L 336.522,-400.15 L 330.184,-400.15 L 330.184,-397.25 L 324.446,-397.25
 L 324.446,-400.15 L 318.108,-400.15 L 318.108,-397.25 L 312.37,-397.25 L 312.37,-400.15 L 303.37,-400.15
 L 303.37,-391.45 L 300.47,-391.45 L 300.47,-385.264 L 303.37,-385.264 L 303.37,-379.678 L 300.47,-379.678
 L 300.47,-373.492 L 303.37,-373.492 L 303.37,-367.905 L 300.47,-367.905 L 300.47,-361.719 L 303.37,-361.719
 L 303.37,-356.133 L 300.47,-356.133 L 300.47,-349.947 L 303.37,-349.947 L 303.37,-344.361 L 300.47,-344.361
 L 300.47,-338.175 L 303.37,-338.175 L 303.37,-332.588 L 300.47,-332.588 L 300.47,-326.402 L 303.37,-326.402
 L 303.37,-320.816 L 300.47,-320.816 L 300.47,-314.63 L 303.37,-314.63 L 303.37,-309.044 L 300.47,-309.044
 L 300.47,-302.858 L 303.37,-302.858 L 303.37,-297.272 L 300.47,-297.272 L 300.47,-291.085 L 303.37,-291.085
 L 303.37,-285.499 L 300.47,-285.499 L 300.47,-279.313 L 303.37,-279.313 L 303.37,-273.727 L 300.47,-273.727
 L 300.47,-267.541 L 303.37,-267.541 L 303.37,-261.955 L 300.47,-261.955 L 300.47,-255.768 L 303.37,-255.768
 L 303.37,-250.182 L 300.47,-250.182 L 300.47,-243.996 L 303.37,-243.996 L 303.37,-238.41 L 300.47,-238.41
 L 300.47,-232.224 L 303.37,-232.224 L 303.37,-226.638 L 300.47,-226.638 L 300.47,-220.452 L 303.37,-220.452
 L 303.37,-214.865 L 300.47,-214.865 L 300.47,-208.679 L 303.37,-208.679 L 303.37,-203.093 L 300.47,-203.093
 L 300.47,-196.907 L 303.37,-196.907 L 303.37,-191.321 L 300.47,-191.321 L 300.47,-185.135 L 303.37,-185.135
 L 303.37,-179.548 L 300.47,-179.548 L 300.47,-173.362 L 303.37,-173.362 L 303.37,-167.776 L 300.47,-167.776
 L 300.47,-161.59 L 303.37,-161.59 L 303.37,-156.004 L 300.47,-156.004 L 300.47,-149.818 L 303.37,-149.818
 L 303.37,-144.232 L 300.47,-144.232 L 300.47,-138.045 L 303.37,-138.045 L 303.37,-132.459 L 300.47,-132.459
 L 300.47,-126.273 L 303.37,-126.273 L 303.37,-120.687 L 300.47,-120.687 L 300.47,-114.501 L 303.37,-114.501
 L 303.37,-108.915 L 300.47,-108.915 L 300.47,-102.728 L 303.37,-102.728 L 303.37,-97.1423 L 300.47,-97.1423
 L 300.47,-90.9562 L 303.37,-90.9562 L 303.37,-85.37 L 300.47,-85.37 L 300.47,-79.1839 L 303.37,-79.1839
 L 303.37,-73.5977 L 300.47,-73.5977 L 300.47,-67.4115 L 303.37,-67.4115 L 303.37,-61.8254 L 300.47,-61.8254
 L 300.47,-55.6393 L 303.37,-55.6393 L 303.37,-50.0531 L 300.47,-50.0531 L 300.47,-43.8669 L 303.37,-43.8669
 L 303.37,-38.2808 L 300.47,-38.2808 L 300.47,-32.0946 L 303.37,-32.0946 L 303.37,-26.5085 L 300.47,-26.5085
 L 300.47,-20.3223 L 303.37,-20.3223 L 303.37,-14.7362 L 300.47,-14.7362 L 300.47,-8.55002 L 303.37,-8.55002
 L 303.37,0.149994 L 312.37,0.149994 z
M 462.68,-2.75 L 468.418,-2.75 L 468.418,0.149994 L 474.756,0.149994 L 474.756,-2.75 L 480.494,-2.75
 L 480.494,0.149994 L 486.832,0.149994 L 486.832,-2.75 L 492.57,-2.75 L 492.57,0.149994 L 498.909,0.149994
 L 498.909,-2.75 L 504.647,-2.75 L 504.647,0.149994 L 510.985,0.149994 L 510.985,-2.75 L 516.723,-2.75
 L 516.723,0.149994 L 523.061,0.149994 L 523.061,-2.75 L 528.799,-2.75 L 528.799,0.149994 L 535.137,0.149994
 L 535.137,-2.75 L 540.875,-2.75 L 540.875,0.149994 L 547.213,0.149994 L 547.213,-2.75 L 552.951,-2.75
 L 552.951,0.149994 L 559.289,0.149994 L 559.289,-2.75 L 565.028,-2.75 L 565.028,0.149994 L 571.366,0.149994
 L 571.366,-2.75 L 577.104,-2.75 L 577.104,0.149994 L 583.442,0.149994 L 583.442,-2.75 L 589.18,-2.75
 L 589.18,0.149994 L 598.18,0.149994 L 598.18,-8.55 L 601.08,-8.55 L 601.08,-14.7361 L 598.18,-14.7361
 L 598.18,-20.3223 L 601.08,-20.3223 L 601.08,-26.5085 L 598.18,-26.5085 L 598.18,-32.0946 L 601.08,-32.0946
 L 601.08,-38.2808 L 598.18,-38.2808 L 598.18,-43.8669 L 601.08,-43.8669 L 601.08,-50.0531 L 598.18,-50.0531
 L 598.18,-55.6392 L 601.08,-55.6392 L 601.08,-61.8254 L 598.18,-61.8254 L 598.18,-67.4115 L 601.08,-67.4115
 L 601.08,-73.5977 L 598.18,-73.5977 L 598.18,-79.1838 L 601.08,-79.1838 L 601.08,-85.37 L 598.18,-85.37
 L 598.18,-90.9561 L 601.08,-90.9561 L 601.08,-97.1423 L 598.18,-97.1423 L 598.18,-102.728 L 601.08,-102.728
 L 601.08,-108.915 L 598.18,-108.915 L 598.18,-114.501 L 601.08,-114.501 L 601.08,-120.687 L 598.18,-120.687
 L 598.18,-126.273 L 601.08,-126.273 L 601.08,-132.459 L 598.18,-132.459 L 598.18,-138.045 L 601.08,-138.045
 L 601.08,-144.232 L 598.18,-144.232 L 598.18,-149.818 L 601.08,-149.818 L 601.08,-156.004 L 598.18,-156.004
 L 598.18,-161.59 L 601.08,-161.59 L 601.08,-167.776 L 598.18,-167.776 L 598.18,-173.362 L 601.08,-173.362
 L 601.08,-179.548 L 598.18,-179.548 L 598.18,-185.135 L 601.08,-185.135 L 601.08,-191.321 L 598.18,-191.321
 L 598.18,-196.907 L 601.08,-196.907 L 601.08,-203.093 L 598.18,-203.093 L 598.18,-208.679 L 601.08,-208.679
 L 601.08,-214.865 L 598.18,-214.865 L 598.18,-220.452 L 601.08,-220.452 L 601.08,-226.638 L 598.18,-226.638
 L 598.18,-232.224 L 601.08,-232.224 L 601.08,-238.41 L 598.18,-238.41 L 598.18,-243.996 L 601.08,-243.996
 L 601.08,-250.182 L 598.18,-250.182 L 598.18,-255.768 L 601.08,-255.768 L 601.08,-261.955 L 598.18,-261.955
 L 598.18,-267.541 L 601.08,-267.541 L 601.08,-273.727 L 598.18,-273.727 L 598.18,-279.313 L 601.08,-279.313
 L 601.08,-285.499 L 598.18,-285.499 L 598.18,-291.085 L 601.08,-291.085 L 601.08,-297.272 L 598.18,-297.272
 L 598.18,-302.858 L 601.08,-302.858 L 601.08,-309.044 L 598.18,-309.044 L 598.18,-314.63 L 601.08,-314.63
 L 601.08,-320.816 L 598.18,-320.816 L 598.18,-326.402 L 601.08,-326.402 L 601.08,-332.588 L 598.18,-332.588
 L 598.18,-338.175 L 601.08,-338.175 L 601.08,-344.361 L 598.18,-344.361 L 598.18,-349.947 L 601.08,-349.947
 L 601.08,-356.133 L 598.18,-356.133 L 598.18,-361.719 L 601.08,-361.719 L 601.08,-367.905 L 598.18,-367.905
 L 598.18,-373.492 L 601.08,-373.492 L 601.08,-379.678 L 598.18,-379.678 L 598.18,-385.264 L 601.08,-385.264
 L 601.08,-391.45 L 598.18,-391.45 L 598.18,-400.15 L 589.18,-400.15 L 589.18,-397.25 L 583.442,-397.25
 L 583.442,-400.15 L 577.104,-400.15 L 577.104,-397.25 L 571.366,-397.25 L 571.366,-400.15 L 565.028,-400.15
 L 565.028,-397.25 L 559.29,-397.25 L 559.29,-400.15 L 552.951,-400.15 L 552.951,-397.25 L 547.213,-397.25
 L 547.213,-400.15 L 540.875,-400.15 L 540.875,-397.25 L 535.137,-397.25 L 535.137,-400.15 L 528.799,-400.15
 L 528.799,-397.25 L 523.061,-397.25 L 523.061,-400.15 L 516.723,-400.15 L 516.723,-397.25 L 510.985,-397.25
 L 510.985,-400.15 L 504.647,-400.15 L 504.647,-397.25 L 498.909,-397.25 L 498.909,-400.15 L 492.57,-400.15
 L 492.57,-397.25 L 486.832,-397.25 L 486.832,-400.15 L 480.494,-400.15 L 480.494,-397.25 L 474.756,-397.25
 L 474.756,-400.15 L 468.418,-400.15 L 468.418,-397.25 L 462.68,-397.25 L 462.68,-400.15 L 453.68,-400.15
 L 453.68,-391.45 L 450.78,-391.45 L 450.78,-385.264 L 453.68,-385.264 L 453.68,-379.678 L 450.78,-379.678
 L 450.78,-373.492 L 453.68,-373.492 L 453.68,-367.905 L 450.78,-367.905 L 450.78,-361.719 L 453.68,-361.719
 L 453.68,-356.133 L 450.78,-356.133 L 450.78,-349.947 L 453.68,-349.947 L 453.68,-344.361 L 450.78,-344.361
 L 450.78,-338.175 L 453.68,-338.175 L 453.68,-332.588 L 450.78,-332.588 L 450.78,-326.402 L 453.68,-326.402
 L 453.68,-320.816 L 450.78,-320.816 L 450.78,-314.63 L 453.68,-314.63 L 453.68,-309.044 L 450.78,-309.044
 L 450.78,-302.858 L 453.68,-302.858 L 453.68,-297.272 L 450.78,-297.272 L 450.78,-291.085 L 453.68,-291.085
 L 453.68,-285.499 L 450.78,-285.499 L 450.78,-279.313 L 453.68,-279.313 L 453.68,-273.727 L 450.78,-273.727
 L 450.78,-267.541 L 453.68,-267.541 L 453.68,-261.955 L 450.78,-261.955 L 450.78,-255.768 L 453.68,-255.768
 L 453.68,-250.182 L 450.78,-250.182 L 450.78,-243.996 L 453.68,-243.996 L 453.68,-238.41 L 450.78,-238.41
 L 450.78,-232.224 L 453.68,-232.224 L 453.68,-226.638 L 450.78,-226.638 L 450.78,-220.452 L 453.68,-220.452
 L 453.68,-214.865 L 450.78,-214.865 L 450.78,-208.679 L 453.68,-208.679 L 453.68,-203.093 L 450.78,-203.093
 L 450.78,-196.907 L 453.68,-196.907 L 453.68,-191.321 L 450.78,-191.321 L 450.78,-185.135 L 453.68,-185.135
 L 453.68,-179.548 L 450.78,-179.548 L 450.78,-173.362 L 453.68,-173.362 L 453.68,-167.776 L 450.78,-167.776
 L 450.78,-161.59 L 453.68,-161.59 L 453.68,-156.004 L 450.78,-156.004 L 450.78,-149.818 L 453.68,-149.818
 L 453.68,-144.232 L 450.78,-144.232 L 450.78,-138.045 L 453.68,-138.045 L 453.68,-132.459 L 450.78,-132.459
 L 450.78,-126.273 L 453.68,-126.273 L 453.68,-120.687 L 450.78,-120.687 L 450.78,-114.501 L 453.68,-114.501
 L 453.68,-108.915 L 450.78,-108.915 L 450.78,-102.728 L 453.68,-102.728 L 453.68,-97.1423 L 450.78,-97.1423
 L 450.78,-90.9562 L 453.68,-90.9562 L 453.68,-85.37 L 450.78,-85.37 L 450.78,-79.1839 L 453.68,-79.1839
 L 453.68,-73.5977 L 450.78,-73.5977 L 450.78,-67.4115 L 453.68,-67.4115 L 453.68,-61.8254 L 450.78,-61.8254
 L 450.78,-55.6393 L 453.68,-55.6393 L 453.68,-50.0531 L 450.78,-50.0531 L 450.78,-43.8669 L 453.68,-43.8669
 L 453.68,-38.2808 L 450.78,-38.2808 L 450.78,-32.0946 L 453.68,-32.0946 L 453.68,-26.5085 L 450.78,-26.5085
 L 450.78,-20.3223 L 453.68,-20.3223 L 453.68,-14.7362 L 450.78,-14.7362 L 450.78,-8.55002 L 453.68,-8.55002
 L 453.68,0.149994 L 462.68,0.149994 z
" stroke="black" fill="lightgray" stroke-width="0.5"/>
</svg>
