<?xml version="1.0" standalone="no"?>
<!DOCTYPE svg PUBLIC "-//W3C//DTD SVG 1.1//EN" "http://www.w3.org/Graphics/SVG/1.1/DTD/svg11.dtd">
<svg width="803mm" height="452mm" viewBox="-1 -451 803 452" xmlns="http://www.w3.org/2000/svg" version="1.1">
<title>OpenSCAD Model</title>
<path d="
M 215.05,-253.06 L 220.641,-253.06 L 220.641,-250.16 L 226.831,-250.16 L 226.831,-253.06 L 232.421,-253.06
 L 232.421,-250.16 L 238.612,-250.16 L 238.612,-253.06 L 244.202,-253.06 L 244.202,-250.16 L 250.392,-250.16
 L 250.392,-253.06 L 255.983,-253.06 L 255.983,-250.16 L 262.173,-250.16 L 262.173,-253.06 L 267.763,-253.06
 L 267.763,-250.16 L 273.954,-250.16 L 273.954,-253.06 L 279.544,-253.06 L 279.544,-250.16 L 285.734,-250.16
 L 285.734,-253.06 L 291.325,-253.06 L 291.325,-250.16 L 297.515,-250.16 L 297.515,-253.06 L 303.105,-253.06
 L 303.105,-250.16 L 309.295,-250.16 L 309.295,-253.06 L 314.886,-253.06 L 314.886,-250.16 L 321.076,-250.16
 L 321.076,-253.06 L 326.666,-253.06 L 326.666,-250.16 L 332.857,-250.16 L 332.857,-253.06 L 338.447,-253.06
 L 338.447,-250.16 L 344.637,-250.16 L 344.637,-253.06 L 350.228,-253.06 L 350.228,-250.16 L 356.418,-250.16
 L 356.418,-253.06 L 362.008,-253.06 L 362.008,-250.16 L 368.199,-250.16 L 368.199,-253.06 L 373.789,-253.06
 L 373.789,-250.16 L 379.979,-250.16 L 379.979,-253.06 L 385.57,-253.06 L 385.57,-250.16 L 391.76,-250.16
 L 391.76,-253.06 L 397.56,-253.06 L 397.56,-261.76 L 400.46,-261.76 L 400.46,-268.157 L 397.56,-268.157
 L 397.56,-273.953 L 400.46,-273.953 L 400.46,-280.35 L 397.56,-280.35 L 397.56,-286.146 L 400.46,-286.146
 L 400.46,-292.543 L 397.56,-292.543 L 397.56,-298.339 L 400.46,-298.339 L 400.46,-304.736 L 397.56,-304.736
 L 397.56,-310.532 L 400.46,-310.532 L 400.46,-316.929 L 397.56,-316.929 L 397.56,-322.726 L 400.46,-322.726
 L 400.46,-329.122 L 397.56,-329.122 L 397.56,-334.919 L 400.46,-334.919 L 400.46,-341.315 L 397.56,-341.315
 L 397.56,-347.112 L 400.46,-347.112 L 400.46,-353.508 L 397.56,-353.508 L 397.56,-359.305 L 400.46,-359.305
 L 400.46,-365.701 L 397.56,-365.701 L 397.56,-371.498 L 400.46,-371.498 L 400.46,-377.894 L 397.56,-377.894
 L 397.56,-383.691 L 400.46,-383.691 L 400.46,-390.088 L 397.56,-390.088 L 397.56,-395.884 L 400.46,-395.884
 L 400.46,-402.281 L 397.56,-402.281 L 397.56,-408.077 L 400.46,-408.077 L 400.46,-414.474 L 397.56,-414.474
 L 397.56,-420.27 L 400.46,-420.27 L 400.46,-426.667 L 397.56,-426.667 L 397.56,-432.463 L 400.46,-432.463
 L 400.46,-438.86 L 397.56,-438.86 L 397.56,-447.56 L 391.76,-447.56 L 391.76,-450.46 L 385.57,-450.46
 L 385.57,-447.56 L 379.979,-447.56 L 379.979,-450.46 L 373.789,-450.46 L 373.789,-447.56 L 368.199,-447.56
 L 368.199,-450.46 L 362.008,-450.46 L 362.008,-447.56 L 356.418,-447.56 L 356.418,-450.46 L 350.228,-450.46
 L 350.228,-447.56 L 344.637,-447.56 L 344.637,-450.46 L 338.447,-450.46 L 338.447,-447.56 L 332.857,-447.56
 L 332.857,-450.46 L 326.666,-450.46 L 326.666,-447.56 L 321.076,-447.56 L 321.076,-450.46 L 314.886,-450.46
 L 314.886,-447.56 L 309.295,-447.56 L 309.295,-450.46 L 303.105,-450.46 L 303.105,-447.56 L 297.515,-447.56
 L 297.515,-450.46 L 291.325,-450.46 L 291.325,-447.56 L 285.734,-447.56 L 285.734,-450.46 L 279.544,-450.46
 L 279.544,-447.56 L 273.954,-447.56 L 273.954,-450.46 L 267.763,-450.46 L 267.763,-447.56 L 262.173,-447.56
 L 262.173,-450.46 L 255.983,-450.46 L 255.983,-447.56 L 250.392,-447.56 L 250.392,-450.46 L 244.202,-450.46
 L 244.202,-447.56 L 238.612,-447.56 L 238.612,-450.46 L 232.421,-450.46 L 232.421,-447.56 L 226.831,-447.56
 L 226.831,-450.46 L 220.641,-450.46 L 220.641,-447.56 L 215.05,-447.56 L 215.05,-450.46 L 208.86,-450.46
 L 208.86,-447.56 L 203.06,-447.56 L 203.06,-438.86 L 200.16,-438.86 L 200.16,-432.463 L 203.06,-432.463
 L 203.06,-426.667 L 200.16,-426.667 L 200.16,-420.27 L 203.06,-420.27 L 203.06,-414.474 L 200.16,-414.474
 L 200.16,-408.077 L 203.06,-408.077 L 203.06,-402.281 L 200.16,-402.281 L 200.16,-395.884 L 203.06,-395.884
 L 203.06,-390.088 L 200.16,-390.088 L 200.16,-383.691 L 203.06,-383.691 L 203.06,-377.894 L 200.16,-377.894
 L 200.16,-371.498 L 203.06,-371.498 L 203.06,-365.701 L 200.16,-365.701 L 200.16,-359.305 L 203.06,-359.305
 L 203.06,-353.508 L 200.16,-353.508 L 200.16,-347.112 L 203.06,-347.112 L 203.06,-341.315 L 200.16,-341.315
 L 200.16,-334.919 L 203.06,-334.919 L 203.06,-329.122 L 200.16,-329.122 L 200.16,-322.726 L 203.06,-322.726
 L 203.06,-316.929 L 200.16,-316.929 L 200.16,-310.532 L 203.06,-310.532 L 203.06,-304.736 L 200.16,-304.736
 L 200.16,-298.339 L 203.06,-298.339 L 203.06,-292.543 L 200.16,-292.543 L 200.16,-286.146 L 203.06,-286.146
 L 203.06,-280.35 L 200.16,-280.35 L 200.16,-273.953 L 203.06,-273.953 L 203.06,-268.157 L 200.16,-268.157
 L 200.16,-261.76 L 203.06,-261.76 L 203.06,-253.06 L 208.86,-253.06 L 208.86,-250.16 L 215.05,-250.16
 z
M 14.7403,-253.06 L 20.3306,-253.06 L 20.3306,-250.16 L 26.521,-250.16 L 26.521,-253.06 L 32.1113,-253.06
 L 32.1113,-250.16 L 38.3016,-250.16 L 38.3016,-253.06 L 43.8919,-253.06 L 43.8919,-250.16 L 50.0822,-250.16
 L 50.0822,-253.06 L 55.6726,-253.06 L 55.6726,-250.16 L 61.8629,-250.16 L 61.8629,-253.06 L 67.4532,-253.06
 L 67.4532,-250.16 L 73.6435,-250.16 L 73.6435,-253.06 L 79.2339,-253.06 L 79.2339,-250.16 L 85.4242,-250.16
 L 85.4242,-253.06 L 91.0145,-253.06 L 91.0145,-250.16 L 97.2048,-250.16 L 97.2048,-253.06 L 102.795,-253.06
 L 102.795,-250.16 L 108.985,-250.16 L 108.985,-253.06 L 114.576,-253.06 L 114.576,-250.16 L 120.766,-250.16
 L 120.766,-253.06 L 126.356,-253.06 L 126.356,-250.16 L 132.547,-250.16 L 132.547,-253.06 L 138.137,-253.06
 L 138.137,-250.16 L 144.327,-250.16 L 144.327,-253.06 L 149.918,-253.06 L 149.918,-250.16 L 156.108,-250.16
 L 156.108,-253.06 L 161.698,-253.06 L 161.698,-250.16 L 167.889,-250.16 L 167.889,-253.06 L 173.479,-253.06
 L 173.479,-250.16 L 179.669,-250.16 L 179.669,-253.06 L 185.26,-253.06 L 185.26,-250.16 L 191.45,-250.16
 L 191.45,-253.06 L 197.25,-253.06 L 197.25,-261.76 L 200.15,-261.76 L 200.15,-268.157 L 197.25,-268.157
 L 197.25,-273.953 L 200.15,-273.953 L 200.15,-280.35 L 197.25,-280.35 L 197.25,-286.146 L 200.15,-286.146
 L 200.15,-292.543 L 197.25,-292.543 L 197.25,-298.339 L 200.15,-298.339 L 200.15,-304.736 L 197.25,-304.736
 L 197.25,-310.532 L 200.15,-310.532 L 200.15,-316.929 L 197.25,-316.929 L 197.25,-322.726 L 200.15,-322.726
 L 200.15,-329.122 L 197.25,-329.122 L 197.25,-334.919 L 200.15,-334.919 L 200.15,-341.315 L 197.25,-341.315
 L 197.25,-347.112 L 200.15,-347.112 L 200.15,-353.508 L 197.25,-353.508 L 197.25,-359.305 L 200.15,-359.305
 L 200.15,-365.701 L 197.25,-365.701 L 197.25,-371.498 L 200.15,-371.498 L 200.15,-377.894 L 197.25,-377.894
 L 197.25,-383.691 L 200.15,-383.691 L 200.15,-390.088 L 197.25,-390.088 L 197.25,-395.884 L 200.15,-395.884
 L 200.15,-402.281 L 197.25,-402.281 L 197.25,-408.077 L 200.15,-408.077 L 200.15,-414.474 L 197.25,-414.474
 L 197.25,-420.27 L 200.15,-420.27 L 200.15,-426.667 L 197.25,-426.667 L 197.25,-432.463 L 200.15,-432.463
 L 200.15,-438.86 L 197.25,-438.86 L 197.25,-447.56 L 191.45,-447.56 L 191.45,-450.46 L 185.26,-450.46
 L 185.26,-447.56 L 179.669,-447.56 L 179.669,-450.46 L 173.479,-450.46 L 173.479,-447.56 L 167.889,-447.56
 L 167.889,-450.46 L 161.698,-450.46 L 161.698,-447.56 L 156.108,-447.56 L 156.108,-450.46 L 149.918,-450.46
 L 149.918,-447.56 L 144.327,-447.56 L 144.327,-450.46 L 138.137,-450.46 L 138.137,-447.56 L 132.547,-447.56
 L 132.547,-450.46 L 126.356,-450.46 L 126.356,-447.56 L 120.766,-447.56 L 120.766,-450.46 L 114.576,-450.46
 L 114.576,-447.56 L 108.985,-447.56 L 108.985,-450.46 L 102.795,-450.46 L 102.795,-447.56 L 97.2048,-447.56
 L 97.2048,-450.46 L 91.0145,-450.46 L 91.0145,-447.56 L 85.4242,-447.56 L 85.4242,-450.46 L 79.2339,-450.46
 L 79.2339,-447.56 L 73.6436,-447.56 L 73.6436,-450.46 L 67.4532,-450.46 L 67.4532,-447.56 L 61.8629,-447.56
 L 61.8629,-450.46 L 55.6726,-450.46 L 55.6726,-447.56 L 50.0823,-447.56 L 50.0823,-450.46 L 43.892,-450.46
 L 43.892,-447.56 L 38.3016,-447.56 L 38.3016,-450.46 L 32.1113,-450.46 L 32.1113,-447.56 L 26.521,-447.56
 L 26.521,-450.46 L 20.3307,-450.46 L 20.3307,-447.56 L 14.7403,-447.56 L 14.7403,-450.46 L 8.55002,-450.46
 L 8.55002,-447.56 L 2.74998,-447.56 L 2.74998,-438.86 L -0.149994,-438.86 L -0.149994,-432.463 L 2.74998,-432.463
 L 2.74998,-426.667 L -0.149994,-426.667 L -0.149994,-420.27 L 2.74998,-420.27 L 2.74998,-414.474 L -0.149994,-414.474
 L -0.149994,-408.077 L 2.74998,-408.077 L 2.74998,-402.281 L -0.149994,-402.281 L -0.149994,-395.884 L 2.74998,-395.884
 L 2.74998,-390.088 L -0.149994,-390.088 L -0.149994,-383.691 L 2.74998,-383.691 L 2.74998,-377.894 L -0.149994,-377.894
 L -0.149994,-371.498 L 2.74998,-371.498 L 2.74998,-365.701 L -0.149994,-365.701 L -0.149994,-359.305 L 2.74998,-359.305
 L 2.75,-353.508 L -0.149994,-353.508 L -0.149994,-347.112 L 2.75,-347.112 L 2.75,-341.315 L -0.149994,-341.315
 L -0.149994,-334.919 L 2.75,-334.919 L 2.75,-329.122 L -0.149994,-329.122 L -0.149994,-322.726 L 2.75,-322.726
 L 2.75,-316.929 L -0.149994,-316.929 L -0.149994,-310.532 L 2.75,-310.532 L 2.75,-304.736 L -0.149994,-304.736
 L -0.149994,-298.339 L 2.75,-298.339 L 2.75,-292.543 L -0.149994,-292.543 L -0.149994,-286.146 L 2.75,-286.146
 L 2.75,-280.35 L -0.149994,-280.35 L -0.149994,-273.953 L 2.75,-273.953 L 2.75,-268.157 L -0.149994,-268.157
 L -0.149994,-261.76 L 2.75,-261.76 L 2.75,-253.06 L 8.55,-253.06 L 8.55,-250.16 L 14.7403,-250.16
 z
M 209.16,-2.75 L 214.75,-2.75 L 214.75,0.149994 L 220.941,0.149994 L 220.941,-2.75 L 226.531,-2.75
 L 226.531,0.149994 L 232.721,0.149994 L 232.721,-2.75 L 238.312,-2.75 L 238.312,0.149994 L 244.502,0.149994
 L 244.502,-2.75 L 250.092,-2.75 L 250.092,0.149994 L 256.283,0.149994 L 256.283,-2.75 L 261.873,-2.75
 L 261.873,0.149994 L 268.063,0.149994 L 268.063,-2.75 L 273.654,-2.75 L 273.654,0.149994 L 279.844,0.149994
 L 279.844,-2.75 L 285.434,-2.75 L 285.434,0.149994 L 291.624,0.149994 L 291.624,-2.75 L 297.215,-2.75
 L 297.215,0.149994 L 303.405,0.149994 L 303.405,-2.75 L 308.995,-2.75 L 308.995,0.149994 L 315.186,0.149994
 L 315.186,-2.75 L 320.776,-2.75 L 320.776,0.149994 L 326.966,0.149994 L 326.966,-2.75 L 332.557,-2.75
 L 332.557,0.149994 L 338.747,0.149994 L 338.747,-2.75 L 344.337,-2.75 L 344.337,0.149994 L 350.528,0.149994
 L 350.528,-2.75 L 356.118,-2.75 L 356.118,0.149994 L 362.308,0.149994 L 362.308,-2.75 L 367.899,-2.75
 L 367.899,0.149994 L 374.089,0.149994 L 374.089,-2.75 L 379.679,-2.75 L 379.679,0.149994 L 385.87,0.149994
 L 385.87,-2.75 L 391.46,-2.75 L 391.46,0.149994 L 400.46,0.149994 L 400.46,-8.84999 L 397.56,-8.84999
 L 397.56,-14.5141 L 400.46,-14.5141 L 400.46,-20.7782 L 397.56,-20.7782 L 397.56,-26.4423 L 400.46,-26.4423
 L 400.46,-32.7064 L 397.56,-32.7064 L 397.56,-38.3705 L 400.46,-38.3705 L 400.46,-44.6346 L 397.56,-44.6346
 L 397.56,-50.2987 L 400.46,-50.2987 L 400.46,-56.5628 L 397.56,-56.5628 L 397.56,-62.2269 L 400.46,-62.2269
 L 400.46,-68.491 L 397.56,-68.491 L 397.56,-74.1551 L 400.46,-74.1551 L 400.46,-80.4192 L 397.56,-80.4192
 L 397.56,-86.0833 L 400.46,-86.0833 L 400.46,-92.3474 L 397.56,-92.3474 L 397.56,-98.0115 L 400.46,-98.0115
 L 400.46,-104.276 L 397.56,-104.276 L 397.56,-109.94 L 400.46,-109.94 L 400.46,-116.204 L 397.56,-116.204
 L 397.56,-121.868 L 400.46,-121.868 L 400.46,-128.132 L 397.56,-128.132 L 397.56,-133.796 L 400.46,-133.796
 L 400.46,-140.06 L 397.56,-140.06 L 397.56,-145.724 L 400.46,-145.724 L 400.46,-151.988 L 397.56,-151.988
 L 397.56,-157.653 L 400.46,-157.653 L 400.46,-163.917 L 397.56,-163.917 L 397.56,-169.581 L 400.46,-169.581
 L 400.46,-175.845 L 397.56,-175.845 L 397.56,-181.509 L 400.46,-181.509 L 400.46,-187.773 L 397.56,-187.773
 L 397.56,-193.437 L 400.46,-193.437 L 400.46,-199.701 L 397.56,-199.701 L 397.56,-205.365 L 400.46,-205.365
 L 400.46,-211.629 L 397.56,-211.629 L 397.56,-217.294 L 400.46,-217.294 L 400.46,-223.558 L 397.56,-223.558
 L 397.56,-229.222 L 400.46,-229.222 L 400.46,-235.486 L 397.56,-235.486 L 397.56,-241.15 L 400.46,-241.15
 L 400.46,-250.15 L 391.46,-250.15 L 391.46,-247.25 L 385.87,-247.25 L 385.87,-250.15 L 379.679,-250.15
 L 379.679,-247.25 L 374.089,-247.25 L 374.089,-250.15 L 367.899,-250.15 L 367.899,-247.25 L 362.308,-247.25
 L 362.308,-250.15 L 356.118,-250.15 L 356.118,-247.25 L 350.528,-247.25 L 350.528,-250.15 L 344.337,-250.15
 L 344.337,-247.25 L 338.747,-247.25 L 338.747,-250.15 L 332.557,-250.15 L 332.557,-247.25 L 326.966,-247.25
 L 326.966,-250.15 L 320.776,-250.15 L 320.776,-247.25 L 315.186,-247.25 L 315.186,-250.15 L 308.995,-250.15
 L 308.995,-247.25 L 303.405,-247.25 L 303.405,-250.15 L 297.215,-250.15 L 297.215,-247.25 L 291.625,-247.25
 L 291.625,-250.15 L 285.434,-250.15 L 285.434,-247.25 L 279.844,-247.25 L 279.844,-250.15 L 273.654,-250.15
 L 273.654,-247.25 L 268.063,-247.25 L 268.063,-250.15 L 261.873,-250.15 L 261.873,-247.25 L 256.283,-247.25
 L 256.283,-250.15 L 250.092,-250.15 L 250.092,-247.25 L 244.502,-247.25 L 244.502,-250.15 L 238.312,-250.15
 L 238.312,-247.25 L 232.721,-247.25 L 232.721,-250.15 L 226.531,-250.15 L 226.531,-247.25 L 220.941,-247.25
 L 220.941,-250.15 L 214.75,-250.15 L 214.75,-247.25 L 209.16,-247.25 L 209.16,-250.15 L 200.16,-250.15
 L 200.16,-241.15 L 203.06,-241.15 L 203.06,-235.486 L 200.16,-235.486 L 200.16,-229.222 L 203.06,-229.222
 L 203.06,-223.558 L 200.16,-223.558 L 200.16,-217.294 L 203.06,-217.294 L 203.06,-211.629 L 200.16,-211.629
 L 200.16,-205.365 L 203.06,-205.365 L 203.06,-199.701 L 200.16,-199.701 L 200.16,-193.437 L 203.06,-193.437
 L 203.06,-187.773 L 200.16,-187.773 L 200.16,-181.509 L 203.06,-181.509 L 203.06,-175.845 L 200.16,-175.845
 L 200.16,-169.581 L 203.06,-169.581 L 203.06,-163.917 L 200.16,-163.917 L 200.16,-157.653 L 203.06,-157.653
 L 203.06,-151.988 L 200.16,-151.988 L 200.16,-145.724 L 203.06,-145.724 L 203.06,-140.06 L 200.16,-140.06
 L 200.16,-133.796 L 203.06,-133.796 L 203.06,-128.132 L 200.16,-128.132 L 200.16,-121.868 L 203.06,-121.868
 L 203.06,-116.204 L 200.16,-116.204 L 200.16,-109.94 L 203.06,-109.94 L 203.06,-104.276 L 200.16,-104.276
 L 200.16,-98.0116 L 203.06,-98.0116 L 203.06,-92.3474 L 200.16,-92.3474 L 200.16,-86.0833 L 203.06,-86.0833
 L 203.06,-80.4192 L 200.16,-80.4192 L 200.16,-74.1551 L 203.06,-74.1551 L 203.06,-68.491 L 200.16,-68.491
 L 200.16,-62.2269 L 203.06,-62.2269 L 203.06,-56.5628 L 200.16,-56.5628 L 200.16,-50.2987 L 203.06,-50.2987
 L 203.06,-44.6346 L 200.16,-44.6346 L 200.16,-38.3705 L 203.06,-38.3705 L 203.06,-32.7064 L 200.16,-32.7064
 L 200.16,-26.4423 L 203.06,-26.4423 L 203.06,-20.7782 L 200.16,-20.7782 L 200.16,-14.5141 L 203.06,-14.5141
 L 203.06,-8.85001 L 200.16,-8.85001 L 200.16,0.149994 L 209.16,0.149994 z
M 8.84999,-2.75 L 14.4403,-2.75 L 14.4403,0.149994 L 20.6306,0.149994 L 20.6306,-2.75 L 26.221,-2.75
 L 26.221,0.149994 L 32.4113,0.149994 L 32.4113,-2.75 L 38.0016,-2.75 L 38.0016,0.149994 L 44.1919,0.149994
 L 44.1919,-2.75 L 49.7823,-2.75 L 49.7823,0.149994 L 55.9726,0.149994 L 55.9726,-2.75 L 61.5629,-2.75
 L 61.5629,0.149994 L 67.7532,0.149994 L 67.7532,-2.75 L 73.3436,-2.75 L 73.3436,0.149994 L 79.5339,0.149994
 L 79.5339,-2.75 L 85.1242,-2.75 L 85.1242,0.149994 L 91.3145,0.149994 L 91.3145,-2.75 L 96.9048,-2.75
 L 96.9048,0.149994 L 103.095,0.149994 L 103.095,-2.75 L 108.685,-2.75 L 108.685,0.149994 L 114.876,0.149994
 L 114.876,-2.75 L 120.466,-2.75 L 120.466,0.149994 L 126.656,0.149994 L 126.656,-2.75 L 132.247,-2.75
 L 132.247,0.149994 L 138.437,0.149994 L 138.437,-2.75 L 144.027,-2.75 L 144.027,0.149994 L 150.218,0.149994
 L 150.218,-2.75 L 155.808,-2.75 L 155.808,0.149994 L 161.998,0.149994 L 161.998,-2.75 L 167.589,-2.75
 L 167.589,0.149994 L 173.779,0.149994 L 173.779,-2.75 L 179.369,-2.75 L 179.369,0.149994 L 185.56,0.149994
 L 185.56,-2.75 L 191.15,-2.75 L 191.15,0.149994 L 200.15,0.149994 L 200.15,-8.84999 L 197.25,-8.84999
 L 197.25,-14.5141 L 200.15,-14.5141 L 200.15,-20.7782 L 197.25,-20.7782 L 197.25,-26.4423 L 200.15,-26.4423
 L 200.15,-32.7064 L 197.25,-32.7064 L 197.25,-38.3705 L 200.15,-38.3705 L 200.15,-44.6346 L 197.25,-44.6346
 L 197.25,-50.2987 L 200.15,-50.2987 L 200.15,-56.5628 L 197.25,-56.5628 L 197.25,-62.2269 L 200.15,-62.2269
 L 200.15,-68.491 L 197.25,-68.491 L 197.25,-74.1551 L 200.15,-74.1551 L 200.15,-80.4192 L 197.25,-80.4192
 L 197.25,-86.0833 L 200.15,-86.0833 L 200.15,-92.3474 L 197.25,-92.3474 L 197.25,-98.0115 L 200.15,-98.0115
 L 200.15,-104.276 L 197.25,-104.276 L 197.25,-109.94 L 200.15,-109.94 L 200.15,-116.204 L 197.25,-116.204
 L 197.25,-121.868 L 200.15,-121.868 L 200.15,-128.132 L 197.25,-128.132 L 197.25,-133.796 L 200.15,-133.796
 L 200.15,-140.06 L 197.25,-140.06 L 197.25,-145.724 L 200.15,-145.724 L 200.15,-151.988 L 197.25,-151.988
 L 197.25,-157.653 L 200.15,-157.653 L 200.15,-163.917 L 197.25,-163.917 L 197.25,-169.581 L 200.15,-169.581
 L 200.15,-175.845 L 197.25,-175.845 L 197.25,-181.509 L 200.15,-181.509 L 200.15,-187.773 L 197.25,-187.773
 L 197.25,-193.437 L 200.15,-193.437 L 200.15,-199.701 L 197.25,-199.701 L 197.25,-205.365 L 200.15,-205.365
 L 200.15,-211.629 L 197.25,-211.629 L 197.25,-217.294 L 200.15,-217.294 L 200.15,-223.558 L 197.25,-223.558
 L 197.25,-229.222 L 200.15,-229.222 L 200.15,-235.486 L 197.25,-235.486 L 197.25,-241.15 L 200.15,-241.15
 L 200.15,-250.15 L 191.15,-250.15 L 191.15,-247.25 L 185.56,-247.25 L 185.56,-250.15 L 179.369,-250.15
 L 179.369,-247.25 L 173.779,-247.25 L 173.779,-250.15 L 167.589,-250.15 L 167.589,-247.25 L 161.998,-247.25
 L 161.998,-250.15 L 155.808,-250.15 L 155.808,-247.25 L 150.218,-247.25 L 150.218,-250.15 L 144.027,-250.15
 L 144.027,-247.25 L 138.437,-247.25 L 138.437,-250.15 L 132.247,-250.15 L 132.247,-247.25 L 126.656,-247.25
 L 126.656,-250.15 L 120.466,-250.15 L 120.466,-247.25 L 114.876,-247.25 L 114.876,-250.15 L 108.686,-250.15
 L 108.686,-247.25 L 103.095,-247.25 L 103.095,-250.15 L 96.9048,-250.15 L 96.9048,-247.25 L 91.3145,-247.25
 L 91.3145,-250.15 L 85.1242,-250.15 L 85.1242,-247.25 L 79.5339,-247.25 L 79.5339,-250.15 L 73.3436,-250.15
 L 73.3436,-247.25 L 67.7532,-247.25 L 67.7532,-250.15 L 61.5629,-250.15 L 61.5629,-247.25 L 55.9726,-247.25
 L 55.9726,-250.15 L 49.7823,-250.15 L 49.7823,-247.25 L 44.1919,-247.25 L 44.1919,-250.15 L 38.0016,-250.15
 L 38.0016,-247.25 L 32.4113,-247.25 L 32.4113,-250.15 L 26.221,-250.15 L 26.221,-247.25 L 20.6306,-247.25
 L 20.6306,-250.15 L 14.4403,-250.15 L 14.4403,-247.25 L 8.85001,-247.25 L 8.85001,-250.15 L -0.149994,-250.15
 L -0.149994,-241.15 L 2.74998,-241.15 L 2.74998,-235.486 L -0.149994,-235.486 L -0.149994,-229.222 L 2.74998,-229.222
 L 2.74998,-223.558 L -0.149994,-223.558 L -0.149994,-217.294 L 2.74998,-217.294 L 2.74998,-211.629 L -0.149994,-211.629
 L -0.149994,-205.365 L 2.74998,-205.365 L 2.74998,-199.701 L -0.149994,-199.701 L -0.149994,-193.437 L 2.74998,-193.437
 L 2.74998,-187.773 L -0.149994,-187.773 L -0.149994,-181.509 L 2.74998,-181.509 L 2.74998,-175.845 L -0.149994,-175.845
 L -0.149994,-169.581 L 2.74998,-169.581 L 2.74998,-163.917 L -0.149994,-163.917 L -0.149994,-157.653 L 2.74998,-157.653
 L 2.74998,-151.988 L -0.149994,-151.988 L -0.149994,-145.724 L 2.74998,-145.724 L 2.74998,-140.06 L -0.149994,-140.06
 L -0.149994,-133.796 L 2.74998,-133.796 L 2.75,-128.132 L -0.149994,-128.132 L -0.149994,-121.868 L 2.75,-121.868
 L 2.75,-116.204 L -0.149994,-116.204 L -0.149994,-109.94 L 2.75,-109.94 L 2.75,-104.276 L -0.149994,-104.276
 L -0.149994,-98.0116 L 2.75,-98.0116 L 2.75,-92.3474 L -0.149994,-92.3474 L -0.149994,-86.0833 L 2.75,-86.0833
 L 2.75,-80.4192 L -0.149994,-80.4192 L -0.149994,-74.1551 L 2.75,-74.1551 L 2.75,-68.491 L -0.149994,-68.491
 L -0.149994,-62.2269 L 2.75,-62.2269 L 2.75,-56.5628 L -0.149994,-56.5628 L -0.149994,-50.2987 L 2.75,-50.2987
 L 2.75,-44.6346 L -0.149994,-44.6346 L -0.149994,-38.3705 L 2.75,-38.3705 L 2.75,-32.7064 L -0.149994,-32.7064
 L -0.149994,-26.4423 L 2.75,-26.4423 L 2.75,-20.7782 L -0.149994,-20.7782 L -0.149994,-14.5141 L 2.75,-14.5141
 L 2.75,-8.85001 L -0.149994,-8.85001 L -0.149994,0.149994 L 8.84999,0.149994 z
M 412.37,-2.75 L 418.167,-2.75 L 418.167,0.149994 L 424.563,0.149994 L 424.563,-2.75 L 430.36,-2.75
 L 430.36,0.149994 L 436.756,0.149994 L 436.756,-2.75 L 442.553,-2.75 L 442.553,0.149994 L 448.949,0.149994
 L 448.949,-2.75 L 454.746,-2.75 L 454.746,0.149994 L 461.142,0.149994 L 461.142,-2.75 L 466.939,-2.75
 L 466.939,0.149994 L 473.335,0.149994 L 473.335,-2.75 L 479.132,-2.75 L 479.132,0.149994 L 485.529,0.149994
 L 485.529,-2.75 L 491.325,-2.75 L 491.325,0.149994 L 497.722,0.149994 L 497.722,-2.75 L 503.518,-2.75
 L 503.518,0.149994 L 509.915,0.149994 L 509.915,-2.75 L 515.711,-2.75 L 515.711,0.149994 L 522.108,0.149994
 L 522.108,-2.75 L 527.904,-2.75 L 527.904,0.149994 L 534.301,0.149994 L 534.301,-2.75 L 540.098,-2.75
 L 540.098,0.149994 L 546.494,0.149994 L 546.494,-2.75 L 552.291,-2.75 L 552.291,0.149994 L 558.687,0.149994
 L 558.687,-2.75 L 564.484,-2.75 L 564.484,0.149994 L 570.88,0.149994 L 570.88,-2.75 L 576.677,-2.75
 L 576.677,0.149994 L 583.073,0.149994 L 583.073,-2.75 L 588.87,-2.75 L 588.87,0.149994 L 597.87,0.149994
 L 597.87,-8.55 L 600.77,-8.55 L 600.77,-14.8141 L 597.87,-14.8141 L 597.87,-20.4782 L 600.77,-20.4782
 L 600.77,-26.7423 L 597.87,-26.7423 L 597.87,-32.4064 L 600.77,-32.4064 L 600.77,-38.6705 L 597.87,-38.6705
 L 597.87,-44.3346 L 600.77,-44.3346 L 600.77,-50.5987 L 597.87,-50.5987 L 597.87,-56.2628 L 600.77,-56.2628
 L 600.77,-62.5269 L 597.87,-62.5269 L 597.87,-68.191 L 600.77,-68.191 L 600.77,-74.4551 L 597.87,-74.4551
 L 597.87,-80.1192 L 600.77,-80.1192 L 600.77,-86.3833 L 597.87,-86.3833 L 597.87,-92.0474 L 600.77,-92.0474
 L 600.77,-98.3115 L 597.87,-98.3115 L 597.87,-103.976 L 600.77,-103.976 L 600.77,-110.24 L 597.87,-110.24
 L 597.87,-115.904 L 600.77,-115.904 L 600.77,-122.168 L 597.87,-122.168 L 597.87,-127.832 L 600.77,-127.832
 L 600.77,-134.096 L 597.87,-134.096 L 597.87,-139.76 L 600.77,-139.76 L 600.77,-146.024 L 597.87,-146.024
 L 597.87,-151.688 L 600.77,-151.688 L 600.77,-157.953 L 597.87,-157.953 L 597.87,-163.617 L 600.77,-163.617
 L 600.77,-169.881 L 597.87,-169.881 L 597.87,-175.545 L 600.77,-175.545 L 600.77,-181.809 L 597.87,-181.809
 L 597.87,-187.473 L 600.77,-187.473 L 600.77,-193.737 L 597.87,-193.737 L 597.87,-199.401 L 600.77,-199.401
 L 600.77,-205.665 L 597.87,-205.665 L 597.87,-211.329 L 600.77,-211.329 L 600.77,-217.594 L 597.87,-217.594
 L 597.87,-223.258 L 600.77,-223.258 L 600.77,-229.522 L 597.87,-229.522 L 597.87,-235.186 L 600.77,-235.186
 L 600.77,-241.45 L 597.87,-241.45 L 597.87,-250.15 L 588.87,-250.15 L 588.87,-247.25 L 583.073,-247.25
 L 583.073,-250.15 L 576.677,-250.15 L 576.677,-247.25 L 570.88,-247.25 L 570.88,-250.15 L 564.484,-250.15
 L 564.484,-247.25 L 558.687,-247.25 L 558.687,-250.15 L 552.291,-250.15 L 552.291,-247.25 L 546.494,-247.25
 L 546.494,-250.15 L 540.098,-250.15 L 540.098,-247.25 L 534.301,-247.25 L 534.301,-250.15 L 527.904,-250.15
 L 527.904,-247.25 L 522.108,-247.25 L 522.108,-250.15 L 515.711,-250.15 L 515.711,-247.25 L 509.915,-247.25
 L 509.915,-250.15 L 503.518,-250.15 L 503.518,-247.25 L 497.722,-247.25 L 497.722,-250.15 L 491.325,-250.15
 L 491.325,-247.25 L 485.529,-247.25 L 485.529,-250.15 L 479.132,-250.15 L 479.132,-247.25 L 473.336,-247.25
 L 473.336,-250.15 L 466.939,-250.15 L 466.939,-247.25 L 461.142,-247.25 L 461.142,-250.15 L 454.746,-250.15
 L 454.746,-247.25 L 448.949,-247.25 L 448.949,-250.15 L 442.553,-250.15 L 442.553,-247.25 L 436.756,-247.25
 L 436.756,-250.15 L 430.36,-250.15 L 430.36,-247.25 L 424.563,-247.25 L 424.563,-250.15 L 418.167,-250.15
 L 418.167,-247.25 L 412.37,-247.25 L 412.37,-250.15 L 403.37,-250.15 L 403.37,-241.45 L 400.47,-241.45
 L 400.47,-235.186 L 403.37,-235.186 L 403.37,-229.522 L 400.47,-229.522 L 400.47,-223.258 L 403.37,-223.258
 L 403.37,-217.594 L 400.47,-217.594 L 400.47,-211.329 L 403.37,-211.329 L 403.37,-205.665 L 400.47,-205.665
 L 400.47,-199.401 L 403.37,-199.401 L 403.37,-193.737 L 400.47,-193.737 L 400.47,-187.473 L 403.37,-187.473
 L 403.37,-181.809 L 400.47,-181.809 L 400.47,-175.545 L 403.37,-175.545 L 403.37,-169.881 L 400.47,-169.881
 L 400.47,-163.617 L 403.37,-163.617 L 403.37,-157.953 L 400.47,-157.953 L 400.47,-151.688 L 403.37,-151.688
 L 403.37,-146.024 L 400.47,-146.024 L 400.47,-139.76 L 403.37,-139.76 L 403.37,-134.096 L 400.47,-134.096
 L 400.47,-127.832 L 403.37,-127.832 L 403.37,-122.168 L 400.47,-122.168 L 400.47,-115.904 L 403.37,-115.904
 L 403.37,-110.24 L 400.47,-110.24 L 400.47,-103.976 L 403.37,-103.976 L 403.37,-98.3115 L 400.47,-98.3115
 L 400.47,-92.0475 L 403.37,-92.0475 L 403.37,-86.3833 L 400.47,-86.3833 L 400.47,-80.1192 L 403.37,-80.1192
 L 403.37,-74.4551 L 400.47,-74.4551 L 400.47,-68.191 L 403.37,-68.191 L 403.37,-62.5269 L 400.47,-62.5269
 L 400.47,-56.2628 L 403.37,-56.2628 L 403.37,-50.5987 L 400.47,-50.5987 L 400.47,-44.3346 L 403.37,-44.3346
 L 403.37,-38.6705 L 400.47,-38.6705 L 400.47,-32.4064 L 403.37,-32.4064 L 403.37,-26.7423 L 400.47,-26.7423
 L 400.47,-20.4782 L 403.37,-20.4782 L 403.37,-14.8141 L 400.47,-14.8141 L 400.47,-8.55002 L 403.37,-8.55002
 L 403.37,0.149994 L 412.37,0.149994 z
M 612.68,-2.75 L 618.477,-2.75 L 618.477,0.149994 L 624.873,0.149994 L 624.873,-2.75 L 630.67,-2.75
 L 630.67,0.149994 L 637.066,0.149994 L 637.066,-2.75 L 642.863,-2.75 L 642.863,0.149994 L 649.259,0.149994
 L 649.259,-2.75 L 655.056,-2.75 L 655.056,0.149994 L 661.452,0.149994 L 661.452,-2.75 L 667.249,-2.75
 L 667.249,0.149994 L 673.645,0.149994 L 673.645,-2.75 L 679.442,-2.75 L 679.442,0.149994 L 685.839,0.149994
 L 685.839,-2.75 L 691.635,-2.75 L 691.635,0.149994 L 698.032,0.149994 L 698.032,-2.75 L 703.828,-2.75
 L 703.828,0.149994 L 710.225,0.149994 L 710.225,-2.75 L 716.021,-2.75 L 716.021,0.149994 L 722.418,0.149994
 L 722.418,-2.75 L 728.214,-2.75 L 728.214,0.149994 L 734.611,0.149994 L 734.611,-2.75 L 740.408,-2.75
 L 740.408,0.149994 L 746.804,0.149994 L 746.804,-2.75 L 752.601,-2.75 L 752.601,0.149994 L 758.997,0.149994
 L 758.997,-2.75 L 764.794,-2.75 L 764.794,0.149994 L 771.19,0.149994 L 771.19,-2.75 L 776.987,-2.75
 L 776.987,0.149994 L 783.383,0.149994 L 783.383,-2.75 L 789.18,-2.75 L 789.18,0.149994 L 798.18,0.149994
 L 798.18,-8.55 L 801.08,-8.55 L 801.08,-14.8141 L 798.18,-14.8141 L 798.18,-20.4782 L 801.08,-20.4782
 L 801.08,-26.7423 L 798.18,-26.7423 L 798.18,-32.4064 L 801.08,-32.4064 L 801.08,-38.6705 L 798.18,-38.6705
 L 798.18,-44.3346 L 801.08,-44.3346 L 801.08,-50.5987 L 798.18,-50.5987 L 798.18,-56.2628 L 801.08,-56.2628
 L 801.08,-62.5269 L 798.18,-62.5269 L 798.18,-68.191 L 801.08,-68.191 L 801.08,-74.4551 L 798.18,-74.4551
 L 798.18,-80.1192 L 801.08,-80.1192 L 801.08,-86.3833 L 798.18,-86.3833 L 798.18,-92.0474 L 801.08,-92.0474
 L 801.08,-98.3115 L 798.18,-98.3115 L 798.18,-103.976 L 801.08,-103.976 L 801.08,-110.24 L 798.18,-110.24
 L 798.18,-115.904 L 801.08,-115.904 L 801.08,-122.168 L 798.18,-122.168 L 798.18,-127.832 L 801.08,-127.832
 L 801.08,-134.096 L 798.18,-134.096 L 798.18,-139.76 L 801.08,-139.76 L 801.08,-146.024 L 798.18,-146.024
 L 798.18,-151.688 L 801.08,-151.688 L 801.08,-157.953 L 798.18,-157.953 L 798.18,-163.617 L 801.08,-163.617
 L 801.08,-169.881 L 798.18,-169.881 L 798.18,-175.545 L 801.08,-175.545 L 801.08,-181.809 L 798.18,-181.809
 L 798.18,-187.473 L 801.08,-187.473 L 801.08,-193.737 L 798.18,-193.737 L 798.18,-199.401 L 801.08,-199.401
 L 801.08,-205.665 L 798.18,-205.665 L 798.18,-211.329 L 801.08,-211.329 L 801.08,-217.594 L 798.18,-217.594
 L 798.18,-223.258 L 801.08,-223.258 L 801.08,-229.522 L 798.18,-229.522 L 798.18,-235.186 L 801.08,-235.186
 L 801.08,-241.45 L 798.18,-241.45 L 798.18,-250.15 L 789.18,-250.15 L 789.18,-247.25 L 783.383,-247.25
 L 783.383,-250.15 L 776.987,-250.15 L 776.987,-247.25 L 771.19,-247.25 L 771.19,-250.15 L 764.794,-250.15
 L 764.794,-247.25 L 758.997,-247.25 L 758.997,-250.15 L 752.601,-250.15 L 752.601,-247.25 L 746.804,-247.25
 L 746.804,-250.15 L 740.408,-250.15 L 740.408,-247.25 L 734.611,-247.25 L 734.611,-250.15 L 728.214,-250.15
 L 728.214,-247.25 L 722.418,-247.25 L 722.418,-250.15 L 716.021,-250.15 L 716.021,-247.25 L 710.225,-247.25
 L 710.225,-250.15 L 703.828,-250.15 L 703.828,-247.25 L 698.032,-247.25 L 698.032,-250.15 L 691.635,-250.15
 L 691.635,-247.25 L 685.839,-247.25 L 685.839,-250.15 L 679.442,-250.15 L 679.442,-247.25 L 673.646,-247.25
 L 673.646,-250.15 L 667.249,-250.15 L 667.249,-247.25 L 661.452,-247.25 L 661.452,-250.15 L 655.056,-250.15
 L 655.056,-247.25 L 649.259,-247.25 L 649.259,-250.15 L 642.863,-250.15 L 642.863,-247.25 L 637.066,-247.25
 L 637.066,-250.15 L 630.67,-250.15 L 630.67,-247.25 L 624.873,-247.25 L 624.873,-250.15 L 618.477,-250.15
 L 618.477,-247.25 L 612.68,-247.25 L 612.68,-250.15 L 603.68,-250.15 L 603.68,-241.45 L 600.78,-241.45
 L 600.78,-235.186 L 603.68,-235.186 L 603.68,-229.522 L 600.78,-229.522 L 600.78,-223.258 L 603.68,-223.258
 L 603.68,-217.594 L 600.78,-217.594 L 600.78,-211.329 L 603.68,-211.329 L 603.68,-205.665 L 600.78,-205.665
 L 600.78,-199.401 L 603.68,-199.401 L 603.68,-193.737 L 600.78,-193.737 L 600.78,-187.473 L 603.68,-187.473
 L 603.68,-181.809 L 600.78,-181.809 L 600.78,-175.545 L 603.68,-175.545 L 603.68,-169.881 L 600.78,-169.881
 L 600.78,-163.617 L 603.68,-163.617 L 603.68,-157.953 L 600.78,-157.953 L 600.78,-151.688 L 603.68,-151.688
 L 603.68,-146.024 L 600.78,-146.024 L 600.78,-139.76 L 603.68,-139.76 L 603.68,-134.096 L 600.78,-134.096
 L 600.78,-127.832 L 603.68,-127.832 L 603.68,-122.168 L 600.78,-122.168 L 600.78,-115.904 L 603.68,-115.904
 L 603.68,-110.24 L 600.78,-110.24 L 600.78,-103.976 L 603.68,-103.976 L 603.68,-98.3115 L 600.78,-98.3115
 L 600.78,-92.0475 L 603.68,-92.0475 L 603.68,-86.3833 L 600.78,-86.3833 L 600.78,-80.1192 L 603.68,-80.1192
 L 603.68,-74.4551 L 600.78,-74.4551 L 600.78,-68.191 L 603.68,-68.191 L 603.68,-62.5269 L 600.78,-62.5269
 L 600.78,-56.2628 L 603.68,-56.2628 L 603.68,-50.5987 L 600.78,-50.5987 L 600.78,-44.3346 L 603.68,-44.3346
 L 603.68,-38.6705 L 600.78,-38.6705 L 600.78,-32.4064 L 603.68,-32.4064 L 603.68,-26.7423 L 600.78,-26.7423
 L 600.78,-20.4782 L 603.68,-20.4782 L 603.68,-14.8141 L 600.78,-14.8141 L 600.78,-8.55002 L 603.68,-8.55002
 L 603.68,0.149994 L 612.68,0.149994 z
" stroke="black" fill="lightgray" stroke-width="0.5"/>
</svg>
