<?xml version="1.0" encoding="UTF-8" standalone="no"?>
<svg
   xmlns:dc="http://purl.org/dc/elements/1.1/"
   xmlns:cc="http://creativecommons.org/ns#"
   xmlns:rdf="http://www.w3.org/1999/02/22-rdf-syntax-ns#"
   xmlns:svg="http://www.w3.org/2000/svg"
   xmlns="http://www.w3.org/2000/svg"
   xmlns:sodipodi="http://sodipodi.sourceforge.net/DTD/sodipodi-0.dtd"
   xmlns:inkscape="http://www.inkscape.org/namespaces/inkscape"
   width="803mm"
   height="452mm"
   viewBox="-1 -451 803 452"
   version="1.1"
   id="svg3336"
   inkscape:version="0.91 r13725"
   sodipodi:docname="skullbox-side.svg">
  <metadata
     id="metadata3346">
    <rdf:RDF>
      <cc:Work
         rdf:about="">
        <dc:format>image/svg+xml</dc:format>
        <dc:type
           rdf:resource="http://purl.org/dc/dcmitype/StillImage" />
        <dc:title>OpenSCAD Model</dc:title>
      </cc:Work>
    </rdf:RDF>
  </metadata>
  <defs
     id="defs3344" />
  <sodipodi:namedview
     pagecolor="#ffffff"
     bordercolor="#666666"
     borderopacity="1"
     objecttolerance="10"
     gridtolerance="10"
     guidetolerance="10"
     inkscape:pageopacity="0"
     inkscape:pageshadow="2"
     inkscape:window-width="1920"
     inkscape:window-height="986"
     id="namedview3342"
     showgrid="false"
     inkscape:zoom="0.50856234"
     inkscape:cx="980.73992"
     inkscape:cy="744.70379"
     inkscape:window-x="0"
     inkscape:window-y="1"
     inkscape:window-maximized="1"
     inkscape:current-layer="svg3336" />
  <title
     id="title3338">OpenSCAD Model</title>
  <path
     d="m 215.05,-253.06 5.591,0 0,2.9 6.19,0 0,-2.9 5.59,0 0,2.9 6.191,0 0,-2.9 5.59,0 0,2.9 6.19,0 0,-2.9 5.591,0 0,2.9 6.19,0 0,-2.9 5.59,0 0,2.9 6.191,0 0,-2.9 5.59,0 0,2.9 6.19,0 0,-2.9 5.591,0 0,2.9 6.19,0 0,-2.9 5.59,0 0,2.9 6.19,0 0,-2.9 5.591,0 0,2.9 6.19,0 0,-2.9 5.59,0 0,2.9 6.191,0 0,-2.9 5.59,0 0,2.9 6.19,0 0,-2.9 5.591,0 0,2.9 6.19,0 0,-2.9 5.59,0 0,2.9 6.191,0 0,-2.9 5.59,0 0,2.9 6.19,0 0,-2.9 5.591,0 0,2.9 6.19,0 0,-2.9 5.8,0 0,-8.7 2.9,0 0,-6.397 -2.9,0 0,-5.796 2.9,0 0,-6.397 -2.9,0 0,-5.796 2.9,0 0,-6.397 -2.9,0 0,-5.796 2.9,0 0,-6.397 -2.9,0 0,-5.796 2.9,0 0,-6.397 -2.9,0 0,-5.797 2.9,0 0,-6.396 -2.9,0 0,-5.797 2.9,0 0,-6.396 -2.9,0 0,-5.797 2.9,0 0,-6.396 -2.9,0 0,-5.797 2.9,0 0,-6.396 -2.9,0 0,-5.797 2.9,0 0,-6.396 -2.9,0 0,-5.797 2.9,0 0,-6.397 -2.9,0 0,-5.796 2.9,0 0,-6.397 -2.9,0 0,-5.796 2.9,0 0,-6.397 -2.9,0 0,-5.796 2.9,0 0,-6.397 -2.9,0 0,-5.796 2.9,0 0,-6.397 -2.9,0 0,-8.7 -5.8,0 0,-2.9 -6.19,0 0,2.9 -5.591,0 0,-2.9 -6.19,0 0,2.9 -5.59,0 0,-2.9 -6.191,0 0,2.9 -5.59,0 0,-2.9 -6.19,0 0,2.9 -5.591,0 0,-2.9 -6.19,0 0,2.9 -5.59,0 0,-2.9 -6.191,0 0,2.9 -5.59,0 0,-2.9 -6.19,0 0,2.9 -5.591,0 0,-2.9 -6.19,0 0,2.9 -5.59,0 0,-2.9 -6.19,0 0,2.9 -5.591,0 0,-2.9 -6.19,0 0,2.9 -5.59,0 0,-2.9 -6.191,0 0,2.9 -5.59,0 0,-2.9 -6.19,0 0,2.9 -5.591,0 0,-2.9 -6.19,0 0,2.9 -5.59,0 0,-2.9 -6.191,0 0,2.9 -5.59,0 0,-2.9 -6.19,0 0,2.9 -5.591,0 0,-2.9 -6.19,0 0,2.9 -5.8,0 0,8.7 -2.9,0 0,6.397 2.9,0 0,5.796 -2.9,0 0,6.397 2.9,0 0,5.796 -2.9,0 0,6.397 2.9,0 0,5.796 -2.9,0 0,6.397 2.9,0 0,5.796 -2.9,0 0,6.397 2.9,0 0,5.797 -2.9,0 0,6.396 2.9,0 0,5.797 -2.9,0 0,6.396 2.9,0 0,5.797 -2.9,0 0,6.396 2.9,0 0,5.797 -2.9,0 0,6.396 2.9,0 0,5.797 -2.9,0 0,6.396 2.9,0 0,5.797 -2.9,0 0,6.397 2.9,0 0,5.796 -2.9,0 0,6.397 2.9,0 0,5.796 -2.9,0 0,6.397 2.9,0 0,5.796 -2.9,0 0,6.397 2.9,0 0,5.796 -2.9,0 0,6.397 2.9,0 0,8.7 5.8,0 0,2.9 6.19,0 z"
     id="path3358" />
  <path
     d="m 14.7403,-253.06 5.5903,0 0,2.9 6.1904,0 0,-2.9 5.5903,0 0,2.9 6.1903,0 0,-2.9 5.5903,0 0,2.9 6.1903,0 0,-2.9 5.5904,0 0,2.9 6.1903,0 0,-2.9 5.5903,0 0,2.9 6.1903,0 0,-2.9 5.5904,0 0,2.9 6.1903,0 0,-2.9 5.5903,0 0,2.9 6.1903,0 0,-2.9 5.5902,0 0,2.9 6.19,0 0,-2.9 5.591,0 0,2.9 6.19,0 0,-2.9 5.59,0 0,2.9 6.191,0 0,-2.9 5.59,0 0,2.9 6.19,0 0,-2.9 5.591,0 0,2.9 6.19,0 0,-2.9 5.59,0 0,2.9 6.191,0 0,-2.9 5.59,0 0,2.9 6.19,0 0,-2.9 5.591,0 0,2.9 6.19,0 0,-2.9 5.8,0 0,-8.7 2.9,0 0,-6.397 -2.9,0 0,-5.796 2.9,0 0,-6.397 -2.9,0 0,-5.796 2.9,0 0,-6.397 -2.9,0 0,-5.796 2.9,0 0,-6.397 -2.9,0 0,-5.796 2.9,0 0,-6.397 -2.9,0 0,-5.797 2.9,0 0,-6.396 -2.9,0 0,-5.797 2.9,0 0,-6.396 -2.9,0 0,-5.797 2.9,0 0,-6.396 -2.9,0 0,-5.797 2.9,0 0,-6.396 -2.9,0 0,-5.797 2.9,0 0,-6.396 -2.9,0 0,-5.797 2.9,0 0,-6.397 -2.9,0 0,-5.796 2.9,0 0,-6.397 -2.9,0 0,-5.796 2.9,0 0,-6.397 -2.9,0 0,-5.796 2.9,0 0,-6.397 -2.9,0 0,-5.796 2.9,0 0,-6.397 -2.9,0 0,-8.7 -5.8,0 0,-2.9 -6.19,0 0,2.9 -5.591,0 0,-2.9 -6.19,0 0,2.9 -5.59,0 0,-2.9 -6.191,0 0,2.9 -5.59,0 0,-2.9 -6.19,0 0,2.9 -5.591,0 0,-2.9 -6.19,0 0,2.9 -5.59,0 0,-2.9 -6.191,0 0,2.9 -5.59,0 0,-2.9 -6.19,0 0,2.9 -5.591,0 0,-2.9 -6.19,0 0,2.9 -5.5902,0 0,-2.9 -6.1903,0 0,2.9 -5.5903,0 0,-2.9 -6.1903,0 0,2.9 -5.5903,0 0,-2.9 -6.1904,0 0,2.9 -5.5903,0 0,-2.9 -6.1903,0 0,2.9 -5.5903,0 0,-2.9 -6.1903,0 0,2.9 -5.5904,0 0,-2.9 -6.1903,0 0,2.9 -5.5903,0 0,-2.9 -6.1903,0 0,2.9 -5.5904,0 0,-2.9 -6.19028,0 0,2.9 -5.80004,0 0,8.7 -2.899974,0 0,6.397 2.899974,0 0,5.796 -2.899974,0 0,6.397 2.899974,0 0,5.796 -2.899974,0 0,6.397 2.899974,0 0,5.796 -2.899974,0 0,6.397 2.899974,0 0,5.796 -2.899974,0 0,6.397 2.899974,0 0,5.797 -2.899974,0 0,6.396 2.899974,0 0,5.797 -2.899974,0 0,6.396 2.899974,0 2e-5,5.797 -2.899994,0 0,6.396 2.899994,0 0,5.797 -2.899994,0 0,6.396 2.899994,0 0,5.797 -2.899994,0 0,6.396 2.899994,0 0,5.797 -2.899994,0 0,6.397 2.899994,0 0,5.796 -2.899994,0 0,6.397 2.899994,0 0,5.796 -2.899994,0 0,6.397 2.899994,0 0,5.796 -2.899994,0 0,6.397 2.899994,0 0,5.796 -2.899994,0 0,6.397 2.899994,0 0,8.7 5.8,0 0,2.9 6.1903,0 z"
     id="path3356" />
  <path
     d="m 209.16,-2.75 5.59,0 0,2.899994 6.191,0 0,-2.899994 5.59,0 0,2.899994 6.19,0 0,-2.899994 5.591,0 0,2.899994 6.19,0 0,-2.899994 5.59,0 0,2.899994 6.191,0 0,-2.899994 5.59,0 0,2.899994 6.19,0 0,-2.899994 5.591,0 0,2.899994 6.19,0 0,-2.899994 5.59,0 0,2.899994 6.19,0 0,-2.899994 5.591,0 0,2.899994 6.19,0 0,-2.899994 5.59,0 0,2.899994 6.191,0 0,-2.899994 5.59,0 0,2.899994 6.19,0 0,-2.899994 5.591,0 0,2.899994 6.19,0 0,-2.899994 5.59,0 0,2.899994 6.191,0 0,-2.899994 5.59,0 0,2.899994 6.19,0 0,-2.899994 5.591,0 0,2.899994 6.19,0 0,-2.899994 5.59,0 0,2.899994 6.191,0 0,-2.899994 5.59,0 0,2.899994 9,0 0,-8.999984 -2.9,0 0,-5.66411 2.9,0 0,-6.2641 -2.9,0 0,-5.6641 2.9,0 0,-6.2641 -2.9,0 0,-5.6641 2.9,0 0,-6.2641 -2.9,0 0,-5.6641 2.9,0 0,-6.2641 -2.9,0 0,-5.6641 2.9,0 0,-6.2641 -2.9,0 0,-5.6641 2.9,0 0,-6.2641 -2.9,0 0,-5.6641 2.9,0 0,-6.2641 -2.9,0 0,-5.6641 2.9,0 0,-6.2645 -2.9,0 0,-5.664 2.9,0 0,-6.264 -2.9,0 0,-5.664 2.9,0 0,-6.264 -2.9,0 0,-5.664 2.9,0 0,-6.264 -2.9,0 0,-5.664 2.9,0 0,-6.264 -2.9,0 0,-5.665 2.9,0 0,-6.264 -2.9,0 0,-5.664 2.9,0 0,-6.264 -2.9,0 0,-5.664 2.9,0 0,-6.264 -2.9,0 0,-5.664 2.9,0 0,-6.264 -2.9,0 0,-5.664 2.9,0 0,-6.264 -2.9,0 0,-5.665 2.9,0 0,-6.264 -2.9,0 0,-5.664 2.9,0 0,-6.264 -2.9,0 0,-5.664 2.9,0 0,-9 -9,0 0,2.9 -5.59,0 0,-2.9 -6.191,0 0,2.9 -5.59,0 0,-2.9 -6.19,0 0,2.9 -5.591,0 0,-2.9 -6.19,0 0,2.9 -5.59,0 0,-2.9 -6.191,0 0,2.9 -5.59,0 0,-2.9 -6.19,0 0,2.9 -5.591,0 0,-2.9 -6.19,0 0,2.9 -5.59,0 0,-2.9 -6.191,0 0,2.9 -5.59,0 0,-2.9 -6.19,0 0,2.9 -5.59,0 0,-2.9 -6.191,0 0,2.9 -5.59,0 0,-2.9 -6.19,0 0,2.9 -5.591,0 0,-2.9 -6.19,0 0,2.9 -5.59,0 0,-2.9 -6.191,0 0,2.9 -5.59,0 0,-2.9 -6.19,0 0,2.9 -5.591,0 0,-2.9 -6.19,0 0,2.9 -5.59,0 0,-2.9 -6.191,0 0,2.9 -5.59,0 0,-2.9 -9,0 0,9 2.9,0 0,5.664 -2.9,0 0,6.264 2.9,0 0,5.664 -2.9,0 0,6.264 2.9,0 0,5.665 -2.9,0 0,6.264 2.9,0 0,5.664 -2.9,0 0,6.264 2.9,0 0,5.664 -2.9,0 0,6.264 2.9,0 0,5.664 -2.9,0 0,6.264 2.9,0 0,5.664 -2.9,0 0,6.264 2.9,0 0,5.665 -2.9,0 0,6.264 2.9,0 0,5.664 -2.9,0 0,6.264 2.9,0 0,5.664 -2.9,0 0,6.264 2.9,0 0,5.664 -2.9,0 0,6.264 2.9,0 0,5.664 -2.9,0 0,6.2644 2.9,0 0,5.6642 -2.9,0 0,6.2641 2.9,0 0,5.6641 -2.9,0 0,6.2641 2.9,0 0,5.6641 -2.9,0 0,6.2641 2.9,0 0,5.6641 -2.9,0 0,6.2641 2.9,0 0,5.6641 -2.9,0 0,6.2641 2.9,0 0,5.6641 -2.9,0 0,6.2641 2.9,0 0,5.6641 -2.9,0 0,6.2641 2.9,0 0,5.66409 -2.9,0 0,9.000004 9,0 z"
     id="path3354" />
  <path
     d="m 8.84999,-2.75 5.59031,0 0,2.899994 6.1903,0 0,-2.899994 5.5904,0 0,2.899994 6.1903,0 0,-2.899994 5.5903,0 0,2.899994 6.1903,0 0,-2.899994 5.5904,0 0,2.899994 6.1903,0 0,-2.899994 5.5903,0 0,2.899994 6.1903,0 0,-2.899994 5.5904,0 0,2.899994 6.1903,0 0,-2.899994 5.5903,0 0,2.899994 6.1903,0 0,-2.899994 5.5903,0 0,2.899994 6.1902,0 0,-2.899994 5.59,0 0,2.899994 6.191,0 0,-2.899994 5.59,0 0,2.899994 6.19,0 0,-2.899994 5.591,0 0,2.899994 6.19,0 0,-2.899994 5.59,0 0,2.899994 6.191,0 0,-2.899994 5.59,0 0,2.899994 6.19,0 0,-2.899994 5.591,0 0,2.899994 6.19,0 0,-2.899994 5.59,0 0,2.899994 6.191,0 0,-2.899994 5.59,0 0,2.899994 9,0 0,-8.999984 -2.9,0 0,-5.66411 2.9,0 0,-6.2641 -2.9,0 0,-5.6641 2.9,0 0,-6.2641 -2.9,0 0,-5.6641 2.9,0 0,-6.2641 -2.9,0 0,-5.6641 2.9,0 0,-6.2641 -2.9,0 0,-5.6641 2.9,0 0,-6.2641 -2.9,0 0,-5.6641 2.9,0 0,-6.2641 -2.9,0 0,-5.6641 2.9,0 0,-6.2641 -2.9,0 0,-5.6641 2.9,0 0,-6.2645 -2.9,0 0,-5.664 2.9,0 0,-6.264 -2.9,0 0,-5.664 2.9,0 0,-6.264 -2.9,0 0,-5.664 2.9,0 0,-6.264 -2.9,0 0,-5.664 2.9,0 0,-6.264 -2.9,0 0,-5.665 2.9,0 0,-6.264 -2.9,0 0,-5.664 2.9,0 0,-6.264 -2.9,0 0,-5.664 2.9,0 0,-6.264 -2.9,0 0,-5.664 2.9,0 0,-6.264 -2.9,0 0,-5.664 2.9,0 0,-6.264 -2.9,0 0,-5.665 2.9,0 0,-6.264 -2.9,0 0,-5.664 2.9,0 0,-6.264 -2.9,0 0,-5.664 2.9,0 0,-9 -9,0 0,2.9 -5.59,0 0,-2.9 -6.191,0 0,2.9 -5.59,0 0,-2.9 -6.19,0 0,2.9 -5.591,0 0,-2.9 -6.19,0 0,2.9 -5.59,0 0,-2.9 -6.191,0 0,2.9 -5.59,0 0,-2.9 -6.19,0 0,2.9 -5.591,0 0,-2.9 -6.19,0 0,2.9 -5.59,0 0,-2.9 -6.19,0 0,2.9 -5.591,0 0,-2.9 -6.1902,0 0,2.9 -5.5903,0 0,-2.9 -6.1903,0 0,2.9 -5.5903,0 0,-2.9 -6.1903,0 0,2.9 -5.5904,0 0,-2.9 -6.1903,0 0,2.9 -5.5903,0 0,-2.9 -6.1903,0 0,2.9 -5.5904,0 0,-2.9 -6.1903,0 0,2.9 -5.5903,0 0,-2.9 -6.1903,0 0,2.9 -5.5904,0 0,-2.9 -6.1903,0 0,2.9 -5.59029,0 0,-2.9 -9.000004,0 0,9 2.899974,0 0,5.664 -2.899974,0 0,6.264 2.899974,0 0,5.664 -2.899974,0 0,6.264 2.899974,0 0,5.665 -2.899974,0 0,6.264 2.899974,0 0,5.664 -2.899974,0 0,6.264 2.899974,0 0,5.664 -2.899974,0 0,6.264 2.899974,0 0,5.664 -2.899974,0 0,6.264 2.899974,0 0,5.664 -2.899974,0 0,6.264 2.899974,0 0,5.665 -2.899974,0 0,6.264 2.899974,0 0,5.664 -2.899974,0 0,6.264 2.899974,0 2e-5,5.664 -2.899994,0 0,6.264 2.899994,0 0,5.664 -2.899994,0 0,6.264 2.899994,0 0,5.664 -2.899994,0 0,6.2644 2.899994,0 0,5.6642 -2.899994,0 0,6.2641 2.899994,0 0,5.6641 -2.899994,0 0,6.2641 2.899994,0 0,5.6641 -2.899994,0 0,6.2641 2.899994,0 0,5.6641 -2.899994,0 0,6.2641 2.899994,0 0,5.6641 -2.899994,0 0,6.2641 2.899994,0 0,5.6641 -2.899994,0 0,6.2641 2.899994,0 0,5.6641 -2.899994,0 0,6.2641 2.899994,0 0,5.66409 -2.899994,0 0,9.000004 8.999984,0 z"
     id="path3352" />
  <path
     d="m 412.37,-2.75 5.797,0 0,2.899994 6.396,0 0,-2.899994 5.797,0 0,2.899994 6.396,0 0,-2.899994 5.797,0 0,2.899994 6.396,0 0,-2.899994 5.797,0 0,2.899994 6.396,0 0,-2.899994 5.797,0 0,2.899994 6.396,0 0,-2.899994 5.797,0 0,2.899994 6.397,0 0,-2.899994 5.796,0 0,2.899994 6.397,0 0,-2.899994 5.796,0 0,2.899994 6.397,0 0,-2.899994 5.796,0 0,2.899994 6.397,0 0,-2.899994 5.796,0 0,2.899994 6.397,0 0,-2.899994 5.797,0 0,2.899994 6.396,0 0,-2.899994 5.797,0 0,2.899994 6.396,0 0,-2.899994 5.797,0 0,2.899994 6.396,0 0,-2.899994 5.797,0 0,2.899994 6.396,0 0,-2.899994 5.797,0 0,2.899994 9,0 0,-8.699994 2.9,0 0,-6.2641 -2.9,0 0,-5.6641 2.9,0 0,-6.2641 -2.9,0 0,-5.6641 2.9,0 0,-6.2641 -2.9,0 0,-5.6641 2.9,0 0,-6.2641 -2.9,0 0,-5.6641 2.9,0 0,-6.2641 -2.9,0 0,-5.6641 2.9,0 0,-6.2641 -2.9,0 0,-5.6641 2.9,0 0,-6.2641 -2.9,0 0,-5.6641 2.9,0 0,-6.2641 -2.9,0 0,-5.6645 2.9,0 0,-6.264 -2.9,0 0,-5.664 2.9,0 0,-6.264 -2.9,0 0,-5.664 2.9,0 0,-6.264 -2.9,0 0,-5.664 2.9,0 0,-6.264 -2.9,0 0,-5.664 2.9,0 0,-6.265 -2.9,0 0,-5.664 2.9,0 0,-6.264 -2.9,0 0,-5.664 2.9,0 0,-6.264 -2.9,0 0,-5.664 2.9,0 0,-6.264 -2.9,0 0,-5.664 2.9,0 0,-6.264 -2.9,0 0,-5.664 2.9,0 0,-6.265 -2.9,0 0,-5.664 2.9,0 0,-6.264 -2.9,0 0,-5.664 2.9,0 0,-6.264 -2.9,0 0,-8.7 -9,0 0,2.9 -5.797,0 0,-2.9 -6.396,0 0,2.9 -5.797,0 0,-2.9 -6.396,0 0,2.9 -5.797,0 0,-2.9 -6.396,0 0,2.9 -5.797,0 0,-2.9 -6.396,0 0,2.9 -5.797,0 0,-2.9 -6.397,0 0,2.9 -5.796,0 0,-2.9 -6.397,0 0,2.9 -5.796,0 0,-2.9 -6.397,0 0,2.9 -5.796,0 0,-2.9 -6.397,0 0,2.9 -5.796,0 0,-2.9 -6.397,0 0,2.9 -5.796,0 0,-2.9 -6.397,0 0,2.9 -5.797,0 0,-2.9 -6.396,0 0,2.9 -5.797,0 0,-2.9 -6.396,0 0,2.9 -5.797,0 0,-2.9 -6.396,0 0,2.9 -5.797,0 0,-2.9 -6.396,0 0,2.9 -5.797,0 0,-2.9 -9,0 0,8.7 -2.9,0 0,6.264 2.9,0 0,5.664 -2.9,0 0,6.264 2.9,0 0,5.664 -2.9,0 0,6.265 2.9,0 0,5.664 -2.9,0 0,6.264 2.9,0 0,5.664 -2.9,0 0,6.264 2.9,0 0,5.664 -2.9,0 0,6.264 2.9,0 0,5.664 -2.9,0 0,6.264 2.9,0 0,5.664 -2.9,0 0,6.265 2.9,0 0,5.664 -2.9,0 0,6.264 2.9,0 0,5.664 -2.9,0 0,6.264 2.9,0 0,5.664 -2.9,0 0,6.264 2.9,0 0,5.664 -2.9,0 0,6.264 2.9,0 0,5.6645 -2.9,0 0,6.264 2.9,0 0,5.6642 -2.9,0 0,6.2641 2.9,0 0,5.6641 -2.9,0 0,6.2641 2.9,0 0,5.6641 -2.9,0 0,6.2641 2.9,0 0,5.6641 -2.9,0 0,6.2641 2.9,0 0,5.6641 -2.9,0 0,6.2641 2.9,0 0,5.6641 -2.9,0 0,6.2641 2.9,0 0,5.6641 -2.9,0 0,6.26408 2.9,0 0,8.700014 9,0 z"
     id="path3350" />
  <path
     d="m 612.68,-2.75 5.797,0 0,2.899994 6.396,0 0,-2.899994 5.797,0 0,2.899994 6.396,0 0,-2.899994 5.797,0 0,2.899994 6.396,0 0,-2.899994 5.797,0 0,2.899994 6.396,0 0,-2.899994 5.797,0 0,2.899994 6.396,0 0,-2.899994 5.797,0 0,2.899994 6.397,0 0,-2.899994 5.796,0 0,2.899994 6.397,0 0,-2.899994 5.796,0 0,2.899994 6.397,0 0,-2.899994 5.796,0 0,2.899994 6.397,0 0,-2.899994 5.796,0 0,2.899994 6.397,0 0,-2.899994 5.797,0 0,2.899994 6.396,0 0,-2.899994 5.797,0 0,2.899994 6.396,0 0,-2.899994 5.797,0 0,2.899994 6.396,0 0,-2.899994 5.797,0 0,2.899994 6.396,0 0,-2.899994 5.797,0 0,2.899994 9,0 0,-8.699994 2.9,0 0,-6.2641 -2.9,0 0,-5.6641 2.9,0 0,-6.2641 -2.9,0 0,-5.6641 2.9,0 0,-6.2641 -2.9,0 0,-5.6641 2.9,0 0,-6.2641 -2.9,0 0,-5.6641 2.9,0 0,-6.2641 -2.9,0 0,-5.6641 2.9,0 0,-6.2641 -2.9,0 0,-5.6641 2.9,0 0,-6.2641 -2.9,0 0,-5.6641 2.9,0 0,-6.2641 -2.9,0 0,-5.6645 2.9,0 0,-6.264 -2.9,0 0,-5.664 2.9,0 0,-6.264 -2.9,0 0,-5.664 2.9,0 0,-6.264 -2.9,0 0,-5.664 2.9,0 0,-6.264 -2.9,0 0,-5.664 2.9,0 0,-6.265 -2.9,0 0,-5.664 2.9,0 0,-6.264 -2.9,0 0,-5.664 2.9,0 0,-6.264 -2.9,0 0,-5.664 2.9,0 0,-6.264 -2.9,0 0,-5.664 2.9,0 0,-6.264 -2.9,0 0,-5.664 2.9,0 0,-6.265 -2.9,0 0,-5.664 2.9,0 0,-6.264 -2.9,0 0,-5.664 2.9,0 0,-6.264 -2.9,0 0,-8.7 -9,0 0,2.9 -5.797,0 0,-2.9 -6.396,0 0,2.9 -5.797,0 0,-2.9 -6.396,0 0,2.9 -5.797,0 0,-2.9 -6.396,0 0,2.9 -5.797,0 0,-2.9 -6.396,0 0,2.9 -5.797,0 0,-2.9 -6.397,0 0,2.9 -5.796,0 0,-2.9 -6.397,0 0,2.9 -5.796,0 0,-2.9 -6.397,0 0,2.9 -5.796,0 0,-2.9 -6.397,0 0,2.9 -5.796,0 0,-2.9 -6.397,0 0,2.9 -5.796,0 0,-2.9 -6.397,0 0,2.9 -5.797,0 0,-2.9 -6.396,0 0,2.9 -5.797,0 0,-2.9 -6.396,0 0,2.9 -5.797,0 0,-2.9 -6.396,0 0,2.9 -5.797,0 0,-2.9 -6.396,0 0,2.9 -5.797,0 0,-2.9 -9,0 0,8.7 -2.9,0 0,6.264 2.9,0 0,5.664 -2.9,0 0,6.264 2.9,0 0,5.664 -2.9,0 0,6.265 2.9,0 0,5.664 -2.9,0 0,6.264 2.9,0 0,5.664 -2.9,0 0,6.264 2.9,0 0,5.664 -2.9,0 0,6.264 2.9,0 0,5.664 -2.9,0 0,6.264 2.9,0 0,5.664 -2.9,0 0,6.265 2.9,0 0,5.664 -2.9,0 0,6.264 2.9,0 0,5.664 -2.9,0 0,6.264 2.9,0 0,5.664 -2.9,0 0,6.264 2.9,0 0,5.664 -2.9,0 0,6.264 2.9,0 0,5.6645 -2.9,0 0,6.264 2.9,0 0,5.6642 -2.9,0 0,6.2641 2.9,0 0,5.6641 -2.9,0 0,6.2641 2.9,0 0,5.6641 -2.9,0 0,6.2641 2.9,0 0,5.6641 -2.9,0 0,6.2641 2.9,0 0,5.6641 -2.9,0 0,6.2641 2.9,0 0,5.6641 -2.9,0 0,6.2641 2.9,0 0,5.6641 -2.9,0 0,6.26408 2.9,0 0,8.700014 9,0 z"
     id="path3340" />
</svg>
